<?xml version="1.0" encoding="UTF-8" standalone="no"?>
<!DOCTYPE svg PUBLIC "-//W3C//DTD SVG 1.1//EN"
 "http://www.w3.org/Graphics/SVG/1.1/DTD/svg11.dtd">
<!-- Generated by graphviz version 14.1.2 (0)
 -->
<!-- Title: G Pages: 1 -->
<svg width="1586pt" height="819pt"
 viewBox="0.00 0.00 1586.00 819.00" xmlns="http://www.w3.org/2000/svg" xmlns:xlink="http://www.w3.org/1999/xlink">
<g id="graph0" class="graph" transform="scale(1 1) rotate(0) translate(4 815)">
<title>G</title>
<polygon fill="white" stroke="none" points="-4,4 -4,-815 1582.25,-815 1582.25,4 -4,4"/>
<g id="clust2" class="cluster">
<title>cluster_8bc00d59</title>
<polygon fill="none" stroke="black" stroke-dasharray="1,5" points="8,-201 8,-440 1072.38,-440 1072.38,-201 8,-201"/>
<text xml:space="preserve" text-anchor="middle" x="540.19" y="-422.7" font-family="Times New Roman,serif" font-size="14.00">File: forest</text>
</g>
<g id="clust3" class="cluster">
<title>cluster_5fabf7c5</title>
<polygon fill="none" stroke="black" stroke-dasharray="1,5" points="362.62,-62 362.62,-193 525.88,-193 525.88,-62 362.62,-62"/>
<text xml:space="preserve" text-anchor="middle" x="444.25" y="-175.7" font-family="Times New Roman,serif" font-size="14.00">File: grove</text>
</g>
<g id="clust4" class="cluster">
<title>cluster_66e7afb1</title>
<polygon fill="none" stroke="black" stroke-dasharray="1,5" points="48.88,-448 48.88,-718 780.38,-718 780.38,-448 48.88,-448"/>
<text xml:space="preserve" text-anchor="middle" x="414.62" y="-700.7" font-family="Times New Roman,serif" font-size="14.00">File: skeleton</text>
</g>
<g id="clust5" class="cluster">
<title>cluster_e77466b4</title>
<polygon fill="none" stroke="black" stroke-dasharray="1,5" points="653.88,-456 653.88,-587 760.88,-587 760.88,-456 653.88,-456"/>
<text xml:space="preserve" text-anchor="middle" x="707.38" y="-569.7" font-family="Times New Roman,serif" font-size="14.00">Class: Vector3</text>
</g>
<g id="clust6" class="cluster">
<title>cluster_90e07cd9</title>
<polygon fill="none" stroke="black" stroke-dasharray="1,5" points="842,-8 842,-193 1568.25,-193 1568.25,-8 842,-8"/>
<text xml:space="preserve" text-anchor="middle" x="1205.12" y="-175.7" font-family="Times New Roman,serif" font-size="14.00">File: tree</text>
</g>
<g id="clust7" class="cluster">
<title>cluster_037949df</title>
<polygon fill="none" stroke="black" stroke-dasharray="1,5" points="48.12,-726 48.12,-803 554,-803 554,-726 48.12,-726"/>
<text xml:space="preserve" text-anchor="middle" x="301.06" y="-785.7" font-family="Times New Roman,serif" font-size="14.00">File: twig</text>
</g>
<!-- Legend -->
<g id="node1" class="node">
<title>Legend</title>
<polygon fill="none" stroke="black" points="19.88,-171.75 19.88,-190.25 283.88,-190.25 283.88,-171.75 19.88,-171.75"/>
<text xml:space="preserve" text-anchor="start" x="99.75" y="-175.95" font-family="Times New Roman,serif" font-size="14.00">Code2flow Legend</text>
<polygon fill="none" stroke="black" points="19.88,-77.75 19.88,-171.75 283.88,-171.75 283.88,-77.75 19.88,-77.75"/>
<polygon fill="none" stroke="black" points="21.88,-147.25 21.88,-169.75 231.88,-169.75 231.88,-147.25 21.88,-147.25"/>
<text xml:space="preserve" text-anchor="start" x="81.12" y="-153.45" font-family="Times New Roman,serif" font-size="14.00">Regular function</text>
<polygon fill="#cccccc" stroke="none" points="231.88,-147.25 231.88,-169.75 281.88,-169.75 281.88,-147.25 231.88,-147.25"/>
<polygon fill="none" stroke="black" points="231.88,-147.25 231.88,-169.75 281.88,-169.75 281.88,-147.25 231.88,-147.25"/>
<polygon fill="none" stroke="black" points="21.88,-124.75 21.88,-147.25 231.88,-147.25 231.88,-124.75 21.88,-124.75"/>
<text xml:space="preserve" text-anchor="start" x="33.12" y="-130.95" font-family="Times New Roman,serif" font-size="14.00">Trunk function (nothing calls this)</text>
<polygon fill="#966f33" stroke="none" points="231.88,-124.75 231.88,-147.25 281.88,-147.25 281.88,-124.75 231.88,-124.75"/>
<polygon fill="none" stroke="black" points="231.88,-124.75 231.88,-147.25 281.88,-147.25 281.88,-124.75 231.88,-124.75"/>
<polygon fill="none" stroke="black" points="21.88,-102.25 21.88,-124.75 231.88,-124.75 231.88,-102.25 21.88,-102.25"/>
<text xml:space="preserve" text-anchor="start" x="24.88" y="-108.45" font-family="Times New Roman,serif" font-size="14.00">Leaf function (this calls nothing else)</text>
<polygon fill="#6db33f" stroke="none" points="231.88,-102.25 231.88,-124.75 281.88,-124.75 281.88,-102.25 231.88,-102.25"/>
<polygon fill="none" stroke="black" points="231.88,-102.25 231.88,-124.75 281.88,-124.75 281.88,-102.25 231.88,-102.25"/>
<polygon fill="none" stroke="black" points="21.88,-79.75 21.88,-102.25 231.88,-102.25 231.88,-79.75 21.88,-79.75"/>
<text xml:space="preserve" text-anchor="start" x="91.25" y="-85.95" font-family="Times New Roman,serif" font-size="14.00">Function call</text>
<polygon fill="none" stroke="black" points="231.88,-79.75 231.88,-102.25 281.88,-102.25 281.88,-79.75 231.88,-79.75"/>
<text xml:space="preserve" text-anchor="start" x="249.75" y="-85.95" font-family="Times New Roman,serif" font-size="14.00">→</text>
<polygon fill="none" stroke="black" points="20.88,-78.75 20.88,-170.75 282.88,-170.75 282.88,-78.75 20.88,-78.75"/>
<polygon fill="none" stroke="black" points="18.88,-76.75 18.88,-191.25 284.88,-191.25 284.88,-76.75 18.88,-76.75"/>
</g>
<!-- node_acce529f -->
<g id="node2" class="node">
<title>node_acce529f</title>
<path fill="#6db33f" stroke="black" d="M802,-353C802,-353 612.75,-353 612.75,-353 606.75,-353 600.75,-347 600.75,-341 600.75,-341 600.75,-329 600.75,-329 600.75,-323 606.75,-317 612.75,-317 612.75,-317 802,-317 802,-317 808,-317 814,-323 814,-329 814,-329 814,-341 814,-341 814,-347 808,-353 802,-353"/>
<text xml:space="preserve" text-anchor="middle" x="707.38" y="-329.95" font-family="Times New Roman,serif" font-size="14.00">344: _apply_competition_thinning()</text>
</g>
<!-- node_21910a6f -->
<g id="node3" class="node">
<title>node_21910a6f</title>
<path fill="#6db33f" stroke="black" d="M509.25,-299C509.25,-299 379.25,-299 379.25,-299 373.25,-299 367.25,-293 367.25,-287 367.25,-287 367.25,-275 367.25,-275 367.25,-269 373.25,-263 379.25,-263 379.25,-263 509.25,-263 509.25,-263 515.25,-263 521.25,-269 521.25,-275 521.25,-275 521.25,-287 521.25,-287 521.25,-293 515.25,-299 509.25,-299"/>
<text xml:space="preserve" text-anchor="middle" x="444.25" y="-275.95" font-family="Times New Roman,serif" font-size="14.00">132: _apply_smoothing()</text>
</g>
<!-- node_8078fc5e -->
<g id="node4" class="node">
<title>node_8078fc5e</title>
<path fill="#cccccc" stroke="black" d="M792.25,-407C792.25,-407 622.5,-407 622.5,-407 616.5,-407 610.5,-401 610.5,-395 610.5,-395 610.5,-383 610.5,-383 610.5,-377 616.5,-371 622.5,-371 622.5,-371 792.25,-371 792.25,-371 798.25,-371 804.25,-377 804.25,-383 804.25,-383 804.25,-395 804.25,-395 804.25,-401 798.25,-407 792.25,-407"/>
<text xml:space="preserve" text-anchor="middle" x="707.38" y="-383.95" font-family="Times New Roman,serif" font-size="14.00">743: _build_models_for_grove()</text>
</g>
<!-- node_2eaa2d74 -->
<g id="node9" class="node">
<title>node_2eaa2d74</title>
<path fill="#6db33f" stroke="black" d="M1052.38,-407C1052.38,-407 908.12,-407 908.12,-407 902.12,-407 896.12,-401 896.12,-395 896.12,-395 896.12,-383 896.12,-383 896.12,-377 902.12,-371 908.12,-371 908.12,-371 1052.38,-371 1052.38,-371 1058.38,-371 1064.38,-377 1064.38,-383 1064.38,-383 1064.38,-395 1064.38,-395 1064.38,-401 1058.38,-407 1052.38,-407"/>
<text xml:space="preserve" text-anchor="middle" x="980.25" y="-383.95" font-family="Times New Roman,serif" font-size="14.00">821: _split_bones_by_tree()</text>
</g>
<!-- node_8078fc5e&#45;&gt;node_2eaa2d74 -->
<g id="edge1" class="edge">
<title>node_8078fc5e&#45;&gt;node_2eaa2d74</title>
<path fill="none" stroke="#d55e00" stroke-width="2" d="M804.73,-395C804.73,-395 883.02,-395 883.02,-395"/>
<polygon fill="#d55e00" stroke="#d55e00" stroke-width="2" points="883.02,-398.5 893.02,-395 883.01,-391.5 883.02,-398.5"/>
</g>
<!-- node_0b0c218d -->
<g id="node27" class="node">
<title>node_0b0c218d</title>
<path fill="#cccccc" stroke="black" d="M1069.25,-160C1069.25,-160 891.25,-160 891.25,-160 885.25,-160 879.25,-154 879.25,-148 879.25,-148 879.25,-136 879.25,-136 879.25,-130 885.25,-124 891.25,-124 891.25,-124 1069.25,-124 1069.25,-124 1075.25,-124 1081.25,-130 1081.25,-136 1081.25,-136 1081.25,-148 1081.25,-148 1081.25,-154 1075.25,-160 1069.25,-160"/>
<text xml:space="preserve" text-anchor="middle" x="980.25" y="-136.95" font-family="Times New Roman,serif" font-size="14.00">114: extract_tree_measurements()</text>
</g>
<!-- node_8078fc5e&#45;&gt;node_0b0c218d -->
<g id="edge2" class="edge">
<title>node_8078fc5e&#45;&gt;node_0b0c218d</title>
<path fill="none" stroke="#d55e00" stroke-width="2" d="M804.68,-383C847.07,-383 887.25,-383 887.25,-383 887.25,-383 887.25,-173.14 887.25,-173.14"/>
<polygon fill="#d55e00" stroke="#d55e00" stroke-width="2" points="890.75,-173.14 887.25,-163.14 883.75,-173.14 890.75,-173.14"/>
</g>
<!-- node_6e49f78c -->
<g id="node5" class="node">
<title>node_6e49f78c</title>
<path fill="#6db33f" stroke="black" d="M785.5,-245C785.5,-245 629.25,-245 629.25,-245 623.25,-245 617.25,-239 617.25,-233 617.25,-233 617.25,-221 617.25,-221 617.25,-215 623.25,-209 629.25,-209 629.25,-209 785.5,-209 785.5,-209 791.5,-209 797.5,-215 797.5,-221 797.5,-221 797.5,-233 797.5,-233 797.5,-239 791.5,-245 785.5,-245"/>
<text xml:space="preserve" text-anchor="middle" x="707.38" y="-221.95" font-family="Times New Roman,serif" font-size="14.00">75: _compute_grove_offsets()</text>
</g>
<!-- node_5b2a200a -->
<g id="node6" class="node">
<title>node_5b2a200a</title>
<path fill="#6db33f" stroke="black" d="M790.38,-299C790.38,-299 624.38,-299 624.38,-299 618.38,-299 612.38,-293 612.38,-287 612.38,-287 612.38,-275 612.38,-275 612.38,-269 618.38,-263 624.38,-263 624.38,-263 790.38,-263 790.38,-263 796.38,-263 802.38,-269 802.38,-275 802.38,-275 802.38,-287 802.38,-287 802.38,-293 796.38,-299 790.38,-299"/>
<text xml:space="preserve" text-anchor="middle" x="707.38" y="-275.95" font-family="Times New Roman,serif" font-size="14.00">93: _run_single_growth_cycle()</text>
</g>
<!-- node_e9b24b90 -->
<g id="node7" class="node">
<title>node_e9b24b90</title>
<path fill="#cccccc" stroke="black" d="M540.38,-407C540.38,-407 348.12,-407 348.12,-407 342.12,-407 336.12,-401 336.12,-395 336.12,-395 336.12,-383 336.12,-383 336.12,-377 342.12,-371 348.12,-371 348.12,-371 540.38,-371 540.38,-371 546.38,-371 552.38,-377 552.38,-383 552.38,-383 552.38,-395 552.38,-395 552.38,-401 546.38,-407 540.38,-407"/>
<text xml:space="preserve" text-anchor="middle" x="444.25" y="-383.95" font-family="Times New Roman,serif" font-size="14.00">693: _simulate_cycle_based_mode()</text>
</g>
<!-- node_e9b24b90&#45;&gt;node_8078fc5e -->
<g id="edge3" class="edge">
<title>node_e9b24b90&#45;&gt;node_8078fc5e</title>
<path fill="none" stroke="#000000" stroke-width="2" d="M552.79,-398C552.79,-398 597.01,-398 597.01,-398"/>
<polygon fill="#000000" stroke="#000000" stroke-width="2" points="597.01,-401.5 607.01,-398 597.01,-394.5 597.01,-401.5"/>
</g>
<!-- node_e9b24b90&#45;&gt;node_5b2a200a -->
<g id="edge4" class="edge">
<title>node_e9b24b90&#45;&gt;node_5b2a200a</title>
<path fill="none" stroke="#000000" stroke-width="2" d="M552.65,-380C566.66,-380 576.25,-380 576.25,-380 576.25,-380 576.25,-287 576.25,-287 576.25,-287 599.05,-287 599.05,-287"/>
<polygon fill="#000000" stroke="#000000" stroke-width="2" points="599.05,-290.5 609.05,-287 599.05,-283.5 599.05,-290.5"/>
</g>
<!-- node_9ba9c394 -->
<g id="node8" class="node">
<title>node_9ba9c394</title>
<path fill="#cccccc" stroke="black" d="M552.75,-353C552.75,-353 335.75,-353 335.75,-353 329.75,-353 323.75,-347 323.75,-341 323.75,-341 323.75,-329 323.75,-329 323.75,-323 329.75,-317 335.75,-317 335.75,-317 552.75,-317 552.75,-317 558.75,-317 564.75,-323 564.75,-329 564.75,-329 564.75,-341 564.75,-341 564.75,-347 558.75,-353 552.75,-353"/>
<text xml:space="preserve" text-anchor="middle" x="444.25" y="-329.95" font-family="Times New Roman,serif" font-size="14.00">410: _simulate_height_threshold_mode()</text>
</g>
<!-- node_9ba9c394&#45;&gt;node_acce529f -->
<g id="edge5" class="edge">
<title>node_9ba9c394&#45;&gt;node_acce529f</title>
<path fill="none" stroke="#f0e442" stroke-width="2" d="M565.03,-329C565.03,-329 587.23,-329 587.23,-329"/>
<polygon fill="#f0e442" stroke="#f0e442" stroke-width="2" points="587.23,-332.5 597.23,-329 587.23,-325.5 587.23,-332.5"/>
</g>
<!-- node_9ba9c394&#45;&gt;node_8078fc5e -->
<g id="edge6" class="edge">
<title>node_9ba9c394&#45;&gt;node_8078fc5e</title>
<path fill="none" stroke="#f0e442" stroke-width="2" d="M565.11,-341C578.97,-341 588.25,-341 588.25,-341 588.25,-341 588.25,-389 588.25,-389 588.25,-389 597.07,-389 597.07,-389"/>
<polygon fill="#f0e442" stroke="#f0e442" stroke-width="2" points="597.07,-392.5 607.07,-389 597.07,-385.5 597.07,-392.5"/>
</g>
<!-- node_9ba9c394&#45;&gt;node_6e49f78c -->
<g id="edge7" class="edge">
<title>node_9ba9c394&#45;&gt;node_6e49f78c</title>
<path fill="none" stroke="#f0e442" stroke-width="2" d="M543.25,-316.84C543.25,-288.26 543.25,-236 543.25,-236 543.25,-236 604.12,-236 604.12,-236"/>
<polygon fill="#f0e442" stroke="#f0e442" stroke-width="2" points="604.12,-239.5 614.12,-236 604.12,-232.5 604.12,-239.5"/>
</g>
<!-- node_9ba9c394&#45;&gt;node_5b2a200a -->
<g id="edge8" class="edge">
<title>node_9ba9c394&#45;&gt;node_5b2a200a</title>
<path fill="none" stroke="#f0e442" stroke-width="2" d="M554.25,-316.67C554.25,-299.03 554.25,-275 554.25,-275 554.25,-275 599.11,-275 599.11,-275"/>
<polygon fill="#f0e442" stroke="#f0e442" stroke-width="2" points="599.11,-278.5 609.11,-275 599.11,-271.5 599.11,-278.5"/>
</g>
<!-- node_9ba9c394&#45;&gt;node_0b0c218d -->
<g id="edge9" class="edge">
<title>node_9ba9c394&#45;&gt;node_0b0c218d</title>
<path fill="none" stroke="#f0e442" stroke-width="2" d="M532.25,-316.84C532.25,-268.8 532.25,-142 532.25,-142 532.25,-142 865.84,-142 865.84,-142"/>
<polygon fill="#f0e442" stroke="#f0e442" stroke-width="2" points="865.84,-145.5 875.84,-142 865.84,-138.5 865.84,-145.5"/>
</g>
<!-- node_64244c88 -->
<g id="node10" class="node">
<title>node_64244c88</title>
<path fill="#966f33" stroke="black" d="M197.75,-245C197.75,-245 106,-245 106,-245 100,-245 94,-239 94,-233 94,-233 94,-221 94,-221 94,-215 100,-209 106,-209 106,-209 197.75,-209 197.75,-209 203.75,-209 209.75,-215 209.75,-221 209.75,-221 209.75,-233 209.75,-233 209.75,-239 203.75,-245 197.75,-245"/>
<text xml:space="preserve" text-anchor="middle" x="151.88" y="-221.95" font-family="Times New Roman,serif" font-size="14.00">24: create_forest()</text>
</g>
<!-- node_31f55a75 -->
<g id="node13" class="node">
<title>node_31f55a75</title>
<path fill="#6db33f" stroke="black" d="M505.88,-160C505.88,-160 382.62,-160 382.62,-160 376.62,-160 370.62,-154 370.62,-148 370.62,-148 370.62,-136 370.62,-136 370.62,-130 376.62,-124 382.62,-124 382.62,-124 505.88,-124 505.88,-124 511.88,-124 517.88,-130 517.88,-136 517.88,-136 517.88,-148 517.88,-148 517.88,-154 511.88,-160 505.88,-160"/>
<text xml:space="preserve" text-anchor="middle" x="444.25" y="-136.95" font-family="Times New Roman,serif" font-size="14.00">57: add_tree_to_grove()</text>
</g>
<!-- node_64244c88&#45;&gt;node_31f55a75 -->
<g id="edge10" class="edge">
<title>node_64244c88&#45;&gt;node_31f55a75</title>
<path fill="none" stroke="#000000" stroke-width="2" d="M209.99,-227C295.25,-227 444.25,-227 444.25,-227 444.25,-227 444.25,-173.47 444.25,-173.47"/>
<polygon fill="#000000" stroke="#000000" stroke-width="2" points="447.75,-173.47 444.25,-163.47 440.75,-173.47 447.75,-173.47"/>
</g>
<!-- node_fa349f61 -->
<g id="node14" class="node">
<title>node_fa349f61</title>
<path fill="#6db33f" stroke="black" d="M490.12,-106C490.12,-106 398.38,-106 398.38,-106 392.38,-106 386.38,-100 386.38,-94 386.38,-94 386.38,-82 386.38,-82 386.38,-76 392.38,-70 398.38,-70 398.38,-70 490.12,-70 490.12,-70 496.12,-70 502.12,-76 502.12,-82 502.12,-82 502.12,-94 502.12,-94 502.12,-100 496.12,-106 490.12,-106"/>
<text xml:space="preserve" text-anchor="middle" x="444.25" y="-82.95" font-family="Times New Roman,serif" font-size="14.00">10: create_grove()</text>
</g>
<!-- node_64244c88&#45;&gt;node_fa349f61 -->
<g id="edge11" class="edge">
<title>node_64244c88&#45;&gt;node_fa349f61</title>
<path fill="none" stroke="#000000" stroke-width="2" d="M209.86,-218C253.29,-218 305.25,-218 305.25,-218 305.25,-218 305.25,-91.38 305.25,-91.38 305.25,-91.38 373.08,-91.38 373.08,-91.38"/>
<polygon fill="#000000" stroke="#000000" stroke-width="2" points="373.08,-94.88 383.08,-91.38 373.08,-87.88 373.08,-94.88"/>
</g>
<!-- node_d709eeba -->
<g id="node11" class="node">
<title>node_d709eeba</title>
<path fill="#966f33" stroke="black" d="M230.75,-299C230.75,-299 73,-299 73,-299 67,-299 61,-293 61,-287 61,-287 61,-275 61,-275 61,-269 67,-263 73,-263 73,-263 230.75,-263 230.75,-263 236.75,-263 242.75,-269 242.75,-275 242.75,-275 242.75,-287 242.75,-287 242.75,-293 236.75,-299 230.75,-299"/>
<text xml:space="preserve" text-anchor="middle" x="151.88" y="-275.95" font-family="Times New Roman,serif" font-size="14.00">155: simulate_forest_growth()</text>
</g>
<!-- node_d709eeba&#45;&gt;node_21910a6f -->
<g id="edge12" class="edge">
<title>node_d709eeba&#45;&gt;node_21910a6f</title>
<path fill="none" stroke="#56b4e9" stroke-width="2" d="M243.18,-275C243.18,-275 353.88,-275 353.88,-275"/>
<polygon fill="#56b4e9" stroke="#56b4e9" stroke-width="2" points="353.88,-278.5 363.88,-275 353.88,-271.5 353.88,-278.5"/>
</g>
<!-- node_d709eeba&#45;&gt;node_5b2a200a -->
<g id="edge13" class="edge">
<title>node_d709eeba&#45;&gt;node_5b2a200a</title>
<path fill="none" stroke="#56b4e9" stroke-width="2" d="M226.25,-262.54C226.25,-257.8 226.25,-254 226.25,-254 226.25,-254 707.25,-254 707.25,-254 707.25,-254 707.25,-254.85 707.25,-254.85"/>
<polygon fill="#56b4e9" stroke="#56b4e9" stroke-width="2" points="703.75,-249.52 707.25,-259.52 710.75,-249.52 703.75,-249.52"/>
</g>
<!-- node_f22d1874 -->
<g id="node12" class="node">
<title>node_f22d1874</title>
<path fill="#966f33" stroke="black" d="M275.75,-353C275.75,-353 28,-353 28,-353 22,-353 16,-347 16,-341 16,-341 16,-329 16,-329 16,-323 22,-317 28,-317 28,-317 275.75,-317 275.75,-317 281.75,-317 287.75,-323 287.75,-329 287.75,-329 287.75,-341 287.75,-341 287.75,-347 281.75,-353 275.75,-353"/>
<text xml:space="preserve" text-anchor="middle" x="151.88" y="-329.95" font-family="Times New Roman,serif" font-size="14.00">221: simulate_forest_growth_with_snapshots()</text>
</g>
<!-- node_f22d1874&#45;&gt;node_21910a6f -->
<g id="edge14" class="edge">
<title>node_f22d1874&#45;&gt;node_21910a6f</title>
<path fill="none" stroke="#f0e442" stroke-width="2" d="M264.25,-316.58C264.25,-303.04 264.25,-287 264.25,-287 264.25,-287 353.84,-287 353.84,-287"/>
<polygon fill="#f0e442" stroke="#f0e442" stroke-width="2" points="353.84,-290.5 363.84,-287 353.84,-283.5 353.84,-290.5"/>
</g>
<!-- node_f22d1874&#45;&gt;node_e9b24b90 -->
<g id="edge15" class="edge">
<title>node_f22d1874&#45;&gt;node_e9b24b90</title>
<path fill="none" stroke="#f0e442" stroke-width="2" d="M267.25,-353.28C267.25,-368.95 267.25,-389 267.25,-389 267.25,-389 322.66,-389 322.66,-389"/>
<polygon fill="#f0e442" stroke="#f0e442" stroke-width="2" points="322.66,-392.5 332.66,-389 322.66,-385.5 322.66,-392.5"/>
</g>
<!-- node_f22d1874&#45;&gt;node_9ba9c394 -->
<g id="edge16" class="edge">
<title>node_f22d1874&#45;&gt;node_9ba9c394</title>
<path fill="none" stroke="#f0e442" stroke-width="2" d="M288.22,-335C288.22,-335 310.42,-335 310.42,-335"/>
<polygon fill="#f0e442" stroke="#f0e442" stroke-width="2" points="310.42,-338.5 320.42,-335 310.42,-331.5 310.42,-338.5"/>
</g>
<!-- node_baace95c -->
<g id="node15" class="node">
<title>node_baace95c</title>
<path fill="#6db33f" stroke="black" d="M740.88,-554C740.88,-554 673.88,-554 673.88,-554 667.88,-554 661.88,-548 661.88,-542 661.88,-542 661.88,-530 661.88,-530 661.88,-524 667.88,-518 673.88,-518 673.88,-518 740.88,-518 740.88,-518 746.88,-518 752.88,-524 752.88,-530 752.88,-530 752.88,-542 752.88,-542 752.88,-548 746.88,-554 740.88,-554"/>
<text xml:space="preserve" text-anchor="middle" x="707.38" y="-530.95" font-family="Times New Roman,serif" font-size="14.00">36: as_tuple()</text>
</g>
<!-- node_ece6007c -->
<g id="node16" class="node">
<title>node_ece6007c</title>
<path fill="#6db33f" stroke="black" d="M735.25,-500C735.25,-500 679.5,-500 679.5,-500 673.5,-500 667.5,-494 667.5,-488 667.5,-488 667.5,-476 667.5,-476 667.5,-470 673.5,-464 679.5,-464 679.5,-464 735.25,-464 735.25,-464 741.25,-464 747.25,-470 747.25,-476 747.25,-476 747.25,-488 747.25,-488 747.25,-494 741.25,-500 735.25,-500"/>
<text xml:space="preserve" text-anchor="middle" x="707.38" y="-476.95" font-family="Times New Roman,serif" font-size="14.00">33: length()</text>
</g>
<!-- node_2f368442 -->
<g id="node17" class="node">
<title>node_2f368442</title>
<path fill="#6db33f" stroke="black" d="M760.38,-685C760.38,-685 654.38,-685 654.38,-685 648.38,-685 642.38,-679 642.38,-673 642.38,-673 642.38,-661 642.38,-661 642.38,-655 648.38,-649 654.38,-649 654.38,-649 760.38,-649 760.38,-649 766.38,-649 772.38,-655 772.38,-661 772.38,-661 772.38,-673 772.38,-673 772.38,-679 766.38,-685 760.38,-685"/>
<text xml:space="preserve" text-anchor="middle" x="707.38" y="-661.95" font-family="Times New Roman,serif" font-size="14.00">538: _apply_falloff()</text>
</g>
<!-- node_55c40bb7 -->
<g id="node18" class="node">
<title>node_55c40bb7</title>
<path fill="#6db33f" stroke="black" d="M757.38,-631C757.38,-631 657.38,-631 657.38,-631 651.38,-631 645.38,-625 645.38,-619 645.38,-619 645.38,-607 645.38,-607 645.38,-601 651.38,-595 657.38,-595 657.38,-595 757.38,-595 757.38,-595 763.38,-595 769.38,-601 769.38,-607 769.38,-607 769.38,-619 769.38,-619 769.38,-625 763.38,-631 757.38,-631"/>
<text xml:space="preserve" text-anchor="middle" x="707.38" y="-607.95" font-family="Times New Roman,serif" font-size="14.00">531: _distance_3d()</text>
</g>
<!-- node_30e264f4 -->
<g id="node19" class="node">
<title>node_30e264f4</title>
<path fill="#966f33" stroke="black" d="M234.88,-512C234.88,-512 68.88,-512 68.88,-512 62.88,-512 56.88,-506 56.88,-500 56.88,-500 56.88,-488 56.88,-488 56.88,-482 62.88,-476 68.88,-476 68.88,-476 234.88,-476 234.88,-476 240.88,-476 246.88,-482 246.88,-488 246.88,-488 246.88,-500 246.88,-500 246.88,-506 240.88,-512 234.88,-512"/>
<text xml:space="preserve" text-anchor="middle" x="151.88" y="-488.95" font-family="Times New Roman,serif" font-size="14.00">152: build_skeleton_hierarchy()</text>
</g>
<!-- node_30e264f4&#45;&gt;node_ece6007c -->
<g id="edge17" class="edge">
<title>node_30e264f4&#45;&gt;node_ece6007c</title>
<path fill="none" stroke="#f0e442" stroke-width="2" d="M152.25,-475.57C152.25,-472.34 152.25,-470 152.25,-470 152.25,-470 653.98,-470 653.98,-470"/>
<polygon fill="#f0e442" stroke="#f0e442" stroke-width="2" points="653.98,-473.5 663.98,-470 653.98,-466.5 653.98,-473.5"/>
</g>
<!-- node_3fe6bd57 -->
<g id="node20" class="node">
<title>node_3fe6bd57</title>
<path fill="#cccccc" stroke="black" d="M529.12,-512C529.12,-512 359.38,-512 359.38,-512 353.38,-512 347.38,-506 347.38,-500 347.38,-500 347.38,-488 347.38,-488 347.38,-482 353.38,-476 359.38,-476 359.38,-476 529.12,-476 529.12,-476 535.12,-476 541.12,-482 541.12,-488 541.12,-488 541.12,-500 541.12,-500 541.12,-506 535.12,-512 529.12,-512"/>
<text xml:space="preserve" text-anchor="middle" x="444.25" y="-488.95" font-family="Times New Roman,serif" font-size="14.00">84: calculate_rotation_to_align()</text>
</g>
<!-- node_30e264f4&#45;&gt;node_3fe6bd57 -->
<g id="edge18" class="edge">
<title>node_30e264f4&#45;&gt;node_3fe6bd57</title>
<path fill="none" stroke="#f0e442" stroke-width="2" d="M247.2,-488C247.2,-488 334.02,-488 334.02,-488"/>
<polygon fill="#f0e442" stroke="#f0e442" stroke-width="2" points="334.02,-491.5 344.02,-488 334.02,-484.5 334.02,-491.5"/>
</g>
<!-- node_3a94dc9c -->
<g id="node22" class="node">
<title>node_3a94dc9c</title>
<path fill="#cccccc" stroke="black" d="M546.75,-566C546.75,-566 341.75,-566 341.75,-566 335.75,-566 329.75,-560 329.75,-554 329.75,-554 329.75,-542 329.75,-542 329.75,-536 335.75,-530 341.75,-530 341.75,-530 546.75,-530 546.75,-530 552.75,-530 558.75,-536 558.75,-542 558.75,-542 558.75,-554 558.75,-554 558.75,-560 552.75,-566 546.75,-566"/>
<text xml:space="preserve" text-anchor="middle" x="444.25" y="-542.95" font-family="Times New Roman,serif" font-size="14.00">71: convert_grove_vector_to_vector3()</text>
</g>
<!-- node_30e264f4&#45;&gt;node_3a94dc9c -->
<g id="edge19" class="edge">
<title>node_30e264f4&#45;&gt;node_3a94dc9c</title>
<path fill="none" stroke="#f0e442" stroke-width="2" d="M247.12,-500C294.28,-500 341.25,-500 341.25,-500 341.25,-500 341.25,-516.55 341.25,-516.55"/>
<polygon fill="#f0e442" stroke="#f0e442" stroke-width="2" points="337.75,-516.55 341.25,-526.55 344.75,-516.55 337.75,-516.55"/>
</g>
<!-- node_3fe6bd57&#45;&gt;node_ece6007c -->
<g id="edge21" class="edge">
<title>node_3fe6bd57&#45;&gt;node_ece6007c</title>
<path fill="none" stroke="#cc79a7" stroke-width="2" d="M541.48,-488C541.48,-488 654.16,-488 654.16,-488"/>
<polygon fill="#cc79a7" stroke="#cc79a7" stroke-width="2" points="654.16,-491.5 664.16,-488 654.16,-484.5 654.16,-491.5"/>
</g>
<!-- node_19d435fb -->
<g id="node21" class="node">
<title>node_19d435fb</title>
<path fill="#966f33" stroke="black" d="M527.25,-625C527.25,-625 361.25,-625 361.25,-625 355.25,-625 349.25,-619 349.25,-613 349.25,-613 349.25,-601 349.25,-601 349.25,-595 355.25,-589 361.25,-589 361.25,-589 527.25,-589 527.25,-589 533.25,-589 539.25,-595 539.25,-601 539.25,-601 539.25,-613 539.25,-613 539.25,-619 533.25,-625 527.25,-625"/>
<text xml:space="preserve" text-anchor="middle" x="444.25" y="-601.95" font-family="Times New Roman,serif" font-size="14.00">357: calculate_vertex_weights()</text>
</g>
<!-- node_19d435fb&#45;&gt;node_baace95c -->
<g id="edge24" class="edge">
<title>node_19d435fb&#45;&gt;node_baace95c</title>
<path fill="none" stroke="#009e73" stroke-width="2" d="M539.3,-605C574.16,-605 605.25,-605 605.25,-605 605.25,-605 605.25,-546 605.25,-546 605.25,-546 648.36,-546 648.36,-546"/>
<polygon fill="#009e73" stroke="#009e73" stroke-width="2" points="648.36,-549.5 658.36,-546 648.36,-542.5 648.36,-549.5"/>
</g>
<!-- node_19d435fb&#45;&gt;node_2f368442 -->
<g id="edge26" class="edge">
<title>node_19d435fb&#45;&gt;node_2f368442</title>
<path fill="none" stroke="#009e73" stroke-width="2" d="M444.25,-625.33C444.25,-642.97 444.25,-667 444.25,-667 444.25,-667 628.97,-667 628.97,-667"/>
<polygon fill="#009e73" stroke="#009e73" stroke-width="2" points="628.97,-670.5 638.97,-667 628.97,-663.5 628.97,-670.5"/>
</g>
<!-- node_19d435fb&#45;&gt;node_55c40bb7 -->
<g id="edge27" class="edge">
<title>node_19d435fb&#45;&gt;node_55c40bb7</title>
<path fill="none" stroke="#009e73" stroke-width="2" d="M539.62,-615C539.62,-615 632.11,-615 632.11,-615"/>
<polygon fill="#009e73" stroke="#009e73" stroke-width="2" points="632.11,-618.5 642.11,-615 632.11,-611.5 632.11,-618.5"/>
</g>
<!-- node_3a94dc9c&#45;&gt;node_baace95c -->
<g id="edge29" class="edge">
<title>node_3a94dc9c&#45;&gt;node_baace95c</title>
<path fill="none" stroke="#f0e442" stroke-width="2" d="M558.9,-538C558.9,-538 648.67,-538 648.67,-538"/>
<polygon fill="#f0e442" stroke="#f0e442" stroke-width="2" points="648.67,-541.5 658.67,-538 648.67,-534.5 648.67,-541.5"/>
</g>
<!-- node_75b0d703 -->
<g id="node23" class="node">
<title>node_75b0d703</title>
<path fill="#6db33f" stroke="black" d="M1308,-52C1308,-52 1163,-52 1163,-52 1157,-52 1151,-46 1151,-40 1151,-40 1151,-28 1151,-28 1151,-22 1157,-16 1163,-16 1163,-16 1308,-16 1308,-16 1314,-16 1320,-22 1320,-28 1320,-28 1320,-40 1320,-40 1320,-46 1314,-52 1308,-52"/>
<text xml:space="preserve" text-anchor="middle" x="1235.5" y="-28.95" font-family="Times New Roman,serif" font-size="14.00">153: _load_growth_model()</text>
</g>
<!-- node_11c1f11d -->
<g id="node24" class="node">
<title>node_11c1f11d</title>
<path fill="#6db33f" stroke="black" d="M1312.5,-160C1312.5,-160 1158.5,-160 1158.5,-160 1152.5,-160 1146.5,-154 1146.5,-148 1146.5,-148 1146.5,-136 1146.5,-136 1146.5,-130 1152.5,-124 1158.5,-124 1158.5,-124 1312.5,-124 1312.5,-124 1318.5,-124 1324.5,-130 1324.5,-136 1324.5,-136 1324.5,-148 1324.5,-148 1324.5,-154 1318.5,-160 1312.5,-160"/>
<text xml:space="preserve" text-anchor="middle" x="1235.5" y="-136.95" font-family="Times New Roman,serif" font-size="14.00">52: calculate_dbh_at_height()</text>
</g>
<!-- node_7a6cb7cf -->
<g id="node25" class="node">
<title>node_7a6cb7cf</title>
<path fill="#966f33" stroke="black" d="M1098.5,-52C1098.5,-52 862,-52 862,-52 856,-52 850,-46 850,-40 850,-40 850,-28 850,-28 850,-22 856,-16 862,-16 862,-16 1098.5,-16 1098.5,-16 1104.5,-16 1110.5,-22 1110.5,-28 1110.5,-28 1110.5,-40 1110.5,-40 1110.5,-46 1104.5,-52 1098.5,-52"/>
<text xml:space="preserve" text-anchor="middle" x="980.25" y="-28.95" font-family="Times New Roman,serif" font-size="14.00">179: calculate_growth_cycles_from_height()</text>
</g>
<!-- node_7a6cb7cf&#45;&gt;node_75b0d703 -->
<g id="edge30" class="edge">
<title>node_7a6cb7cf&#45;&gt;node_75b0d703</title>
<path fill="none" stroke="#cc79a7" stroke-width="2" d="M1110.87,-34C1110.87,-34 1137.58,-34 1137.58,-34"/>
<polygon fill="#cc79a7" stroke="#cc79a7" stroke-width="2" points="1137.58,-37.5 1147.58,-34 1137.58,-30.5 1137.58,-37.5"/>
</g>
<!-- node_ff11f4b5 -->
<g id="node26" class="node">
<title>node_ff11f4b5</title>
<path fill="#cccccc" stroke="black" d="M1304.25,-106C1304.25,-106 1166.75,-106 1166.75,-106 1160.75,-106 1154.75,-100 1154.75,-94 1154.75,-94 1154.75,-82 1154.75,-82 1154.75,-76 1160.75,-70 1166.75,-70 1166.75,-70 1304.25,-70 1304.25,-70 1310.25,-70 1316.25,-76 1316.25,-82 1316.25,-82 1316.25,-94 1316.25,-94 1316.25,-100 1310.25,-106 1304.25,-106"/>
<text xml:space="preserve" text-anchor="middle" x="1235.5" y="-82.95" font-family="Times New Roman,serif" font-size="14.00">40: calculate_tree_height()</text>
</g>
<!-- node_a0e094b9 -->
<g id="node28" class="node">
<title>node_a0e094b9</title>
<path fill="#cccccc" stroke="black" d="M1548.25,-106C1548.25,-106 1372.5,-106 1372.5,-106 1366.5,-106 1360.5,-100 1360.5,-94 1360.5,-94 1360.5,-82 1360.5,-82 1360.5,-76 1366.5,-70 1372.5,-70 1372.5,-70 1548.25,-70 1548.25,-70 1554.25,-70 1560.25,-76 1560.25,-82 1560.25,-82 1560.25,-94 1560.25,-94 1560.25,-100 1554.25,-106 1548.25,-106"/>
<text xml:space="preserve" text-anchor="middle" x="1460.38" y="-82.95" font-family="Times New Roman,serif" font-size="14.00">17: find_max_height_in_branch()</text>
</g>
<!-- node_ff11f4b5&#45;&gt;node_a0e094b9 -->
<g id="edge31" class="edge">
<title>node_ff11f4b5&#45;&gt;node_a0e094b9</title>
<path fill="none" stroke="#0072b2" stroke-width="2" d="M1316.69,-94C1316.69,-94 1347.08,-94 1347.08,-94"/>
<polygon fill="#0072b2" stroke="#0072b2" stroke-width="2" points="1347.08,-97.5 1357.08,-94 1347.08,-90.5 1347.08,-97.5"/>
</g>
<!-- node_0b0c218d&#45;&gt;node_11c1f11d -->
<g id="edge32" class="edge">
<title>node_0b0c218d&#45;&gt;node_11c1f11d</title>
<path fill="none" stroke="#0072b2" stroke-width="2" d="M1081.5,-142C1081.5,-142 1133.33,-142 1133.33,-142"/>
<polygon fill="#0072b2" stroke="#0072b2" stroke-width="2" points="1133.33,-145.5 1143.33,-142 1133.33,-138.5 1133.33,-145.5"/>
</g>
<!-- node_0b0c218d&#45;&gt;node_ff11f4b5 -->
<g id="edge33" class="edge">
<title>node_0b0c218d&#45;&gt;node_ff11f4b5</title>
<path fill="none" stroke="#0072b2" stroke-width="2" d="M980.25,-123.72C980.25,-108.05 980.25,-88 980.25,-88 980.25,-88 1141.36,-88 1141.36,-88"/>
<polygon fill="#0072b2" stroke="#0072b2" stroke-width="2" points="1141.36,-91.5 1151.36,-88 1141.36,-84.5 1141.36,-91.5"/>
</g>
<!-- node_a0e094b9&#45;&gt;node_a0e094b9 -->
<g id="edge34" class="edge">
<title>node_a0e094b9&#45;&gt;node_a0e094b9</title>
<path fill="none" stroke="#e69f00" stroke-width="2" d="M1360.19,-82C1349.4,-82 1342.25,-82 1342.25,-82 1342.25,-82 1342.25,-61 1342.25,-61 1342.25,-61 1578.25,-61 1578.25,-61 1578.25,-61 1578.25,-88 1578.25,-88 1578.25,-88 1573.63,-88 1573.63,-88"/>
<polygon fill="#e69f00" stroke="#e69f00" stroke-width="2" points="1573.63,-84.5 1563.63,-88 1573.63,-91.5 1573.63,-84.5"/>
</g>
<!-- node_20c3a7a4 -->
<g id="node29" class="node">
<title>node_20c3a7a4</title>
<path fill="#966f33" stroke="black" d="M235.62,-770C235.62,-770 68.12,-770 68.12,-770 62.12,-770 56.12,-764 56.12,-758 56.12,-758 56.12,-746 56.12,-746 56.12,-740 62.12,-734 68.12,-734 68.12,-734 235.62,-734 235.62,-734 241.62,-734 247.62,-740 247.62,-746 247.62,-746 247.62,-758 247.62,-758 247.62,-764 241.62,-770 235.62,-770"/>
<text xml:space="preserve" text-anchor="middle" x="151.88" y="-746.95" font-family="Times New Roman,serif" font-size="14.00">414: densify_twig_placements()</text>
</g>
<!-- node_00ec3574 -->
<g id="node30" class="node">
<title>node_00ec3574</title>
<path fill="#6db33f" stroke="black" d="M534,-770C534,-770 354.5,-770 354.5,-770 348.5,-770 342.5,-764 342.5,-758 342.5,-758 342.5,-746 342.5,-746 342.5,-740 348.5,-734 354.5,-734 354.5,-734 534,-734 534,-734 540,-734 546,-740 546,-746 546,-746 546,-758 546,-758 546,-764 540,-770 534,-770"/>
<text xml:space="preserve" text-anchor="middle" x="444.25" y="-746.95" font-family="Times New Roman,serif" font-size="14.00">46: get_face_center_and_normal()</text>
</g>
<!-- node_20c3a7a4&#45;&gt;node_00ec3574 -->
<g id="edge35" class="edge">
<title>node_20c3a7a4&#45;&gt;node_00ec3574</title>
<path fill="none" stroke="#f0e442" stroke-width="2" d="M248.01,-752C248.01,-752 328.99,-752 328.99,-752"/>
<polygon fill="#f0e442" stroke="#f0e442" stroke-width="2" points="328.99,-755.5 338.99,-752 328.99,-748.5 328.99,-755.5"/>
</g>
</g>
</svg>
