<?xml version="1.0" encoding="UTF-8" standalone="no"?>
<!DOCTYPE svg PUBLIC "-//W3C//DTD SVG 1.1//EN"
 "http://www.w3.org/Graphics/SVG/1.1/DTD/svg11.dtd">
<!-- Generated by graphviz version 14.1.2 (0)
 -->
<!-- Title: G Pages: 1 -->
<svg width="1474pt" height="2311pt"
 viewBox="0.00 0.00 1474.00 2311.00" xmlns="http://www.w3.org/2000/svg" xmlns:xlink="http://www.w3.org/1999/xlink">
<g id="graph0" class="graph" transform="scale(1 1) rotate(0) translate(4 2307.25)">
<title>G</title>
<polygon fill="white" stroke="none" points="-4,4 -4,-2307.25 1469.75,-2307.25 1469.75,4 -4,4"/>
<g id="clust2" class="cluster">
<title>cluster_297796cd</title>
<polygon fill="none" stroke="black" stroke-dasharray="1,5" points="10.12,-616.25 10.12,-1017.25 882.75,-1017.25 882.75,-616.25 10.12,-616.25"/>
<text xml:space="preserve" text-anchor="middle" x="446.44" y="-999.95" font-family="Times New Roman,serif" font-size="14.00">File: assembly_export</text>
</g>
<g id="clust3" class="cluster">
<title>cluster_4c07ee73</title>
<polygon fill="none" stroke="black" stroke-dasharray="1,5" points="334.88,-1025.25 334.88,-1102.25 518.38,-1102.25 518.38,-1025.25 334.88,-1025.25"/>
<text xml:space="preserve" text-anchor="middle" x="426.62" y="-1084.95" font-family="Times New Roman,serif" font-size="14.00">File: helios_scene</text>
</g>
<g id="clust4" class="cluster">
<title>cluster_f458a412</title>
<polygon fill="none" stroke="black" stroke-dasharray="1,5" points="44.25,-1110.25 44.25,-1531.25 1167.62,-1531.25 1167.62,-1110.25 44.25,-1110.25"/>
<text xml:space="preserve" text-anchor="middle" x="605.94" y="-1513.95" font-family="Times New Roman,serif" font-size="14.00">File: obj_export</text>
</g>
<g id="clust5" class="cluster">
<title>cluster_c516e853</title>
<polygon fill="none" stroke="black" stroke-dasharray="1,5" points="23.62,-1539.25 23.62,-2048.25 1457.75,-2048.25 1457.75,-1539.25 23.62,-1539.25"/>
<text xml:space="preserve" text-anchor="middle" x="740.69" y="-2030.95" font-family="Times New Roman,serif" font-size="14.00">File: pve_grove_mapper</text>
</g>
<g id="clust6" class="cluster">
<title>cluster_4e74a68c</title>
<polygon fill="none" stroke="black" stroke-dasharray="1,5" points="303,-315.25 303,-608.25 1174,-608.25 1174,-315.25 303,-315.25"/>
<text xml:space="preserve" text-anchor="middle" x="738.5" y="-590.95" font-family="Times New Roman,serif" font-size="14.00">File: tree_export</text>
</g>
<g id="clust7" class="cluster">
<title>cluster_5e1033e7</title>
<polygon fill="none" stroke="black" stroke-dasharray="1,5" points="12,-2056.25 12,-2295.25 536.38,-2295.25 536.38,-2056.25 12,-2056.25"/>
<text xml:space="preserve" text-anchor="middle" x="274.19" y="-2277.95" font-family="Times New Roman,serif" font-size="14.00">File: unreal_scripts</text>
</g>
<g id="clust8" class="cluster">
<title>cluster_1ff29c2e</title>
<polygon fill="none" stroke="black" stroke-dasharray="1,5" points="10.12,-122.25 10.12,-307.25 1175.12,-307.25 1175.12,-122.25 10.12,-122.25"/>
<text xml:space="preserve" text-anchor="middle" x="592.62" y="-289.95" font-family="Times New Roman,serif" font-size="14.00">File: wind_json</text>
</g>
<!-- Legend -->
<g id="node1" class="node">
<title>Legend</title>
<polygon fill="none" stroke="black" points="1,-95 1,-113.5 265,-113.5 265,-95 1,-95"/>
<text xml:space="preserve" text-anchor="start" x="80.88" y="-99.2" font-family="Times New Roman,serif" font-size="14.00">Code2flow Legend</text>
<polygon fill="none" stroke="black" points="1,-1 1,-95 265,-95 265,-1 1,-1"/>
<polygon fill="none" stroke="black" points="3,-70.5 3,-93 213,-93 213,-70.5 3,-70.5"/>
<text xml:space="preserve" text-anchor="start" x="62.25" y="-76.7" font-family="Times New Roman,serif" font-size="14.00">Regular function</text>
<polygon fill="#cccccc" stroke="none" points="213,-70.5 213,-93 263,-93 263,-70.5 213,-70.5"/>
<polygon fill="none" stroke="black" points="213,-70.5 213,-93 263,-93 263,-70.5 213,-70.5"/>
<polygon fill="none" stroke="black" points="3,-48 3,-70.5 213,-70.5 213,-48 3,-48"/>
<text xml:space="preserve" text-anchor="start" x="14.25" y="-54.2" font-family="Times New Roman,serif" font-size="14.00">Trunk function (nothing calls this)</text>
<polygon fill="#966f33" stroke="none" points="213,-48 213,-70.5 263,-70.5 263,-48 213,-48"/>
<polygon fill="none" stroke="black" points="213,-48 213,-70.5 263,-70.5 263,-48 213,-48"/>
<polygon fill="none" stroke="black" points="3,-25.5 3,-48 213,-48 213,-25.5 3,-25.5"/>
<text xml:space="preserve" text-anchor="start" x="6" y="-31.7" font-family="Times New Roman,serif" font-size="14.00">Leaf function (this calls nothing else)</text>
<polygon fill="#6db33f" stroke="none" points="213,-25.5 213,-48 263,-48 263,-25.5 213,-25.5"/>
<polygon fill="none" stroke="black" points="213,-25.5 213,-48 263,-48 263,-25.5 213,-25.5"/>
<polygon fill="none" stroke="black" points="3,-3 3,-25.5 213,-25.5 213,-3 3,-3"/>
<text xml:space="preserve" text-anchor="start" x="72.38" y="-9.2" font-family="Times New Roman,serif" font-size="14.00">Function call</text>
<polygon fill="none" stroke="black" points="213,-3 213,-25.5 263,-25.5 263,-3 213,-3"/>
<text xml:space="preserve" text-anchor="start" x="230.88" y="-9.2" font-family="Times New Roman,serif" font-size="14.00">→</text>
<polygon fill="none" stroke="black" points="2,-2 2,-94 264,-94 264,-2 2,-2"/>
<polygon fill="none" stroke="black" points="0,0 0,-114.5 266,-114.5 266,0 0,0"/>
</g>
<!-- node_65e7734c -->
<g id="node2" class="node">
<title>node_65e7734c</title>
<path fill="#6db33f" stroke="black" d="M824.5,-876.25C824.5,-876.25 637.5,-876.25 637.5,-876.25 631.5,-876.25 625.5,-870.25 625.5,-864.25 625.5,-864.25 625.5,-852.25 625.5,-852.25 625.5,-846.25 631.5,-840.25 637.5,-840.25 637.5,-840.25 824.5,-840.25 824.5,-840.25 830.5,-840.25 836.5,-846.25 836.5,-852.25 836.5,-852.25 836.5,-864.25 836.5,-864.25 836.5,-870.25 830.5,-876.25 824.5,-876.25"/>
<text xml:space="preserve" text-anchor="middle" x="731" y="-853.2" font-family="Times New Roman,serif" font-size="14.00">1421: _build_joint_parent_indices()</text>
</g>
<!-- node_ce984a88 -->
<g id="node3" class="node">
<title>node_ce984a88</title>
<path fill="#6db33f" stroke="black" d="M831.25,-930.25C831.25,-930.25 630.75,-930.25 630.75,-930.25 624.75,-930.25 618.75,-924.25 618.75,-918.25 618.75,-918.25 618.75,-906.25 618.75,-906.25 618.75,-900.25 624.75,-894.25 630.75,-894.25 630.75,-894.25 831.25,-894.25 831.25,-894.25 837.25,-894.25 843.25,-900.25 843.25,-906.25 843.25,-906.25 843.25,-918.25 843.25,-918.25 843.25,-924.25 837.25,-930.25 831.25,-930.25"/>
<text xml:space="preserve" text-anchor="middle" x="731" y="-907.2" font-family="Times New Roman,serif" font-size="14.00">1352: _compute_dual_bone_binding()</text>
</g>
<!-- node_495ad05b -->
<g id="node4" class="node">
<title>node_495ad05b</title>
<path fill="#6db33f" stroke="black" d="M808.38,-984.25C808.38,-984.25 653.62,-984.25 653.62,-984.25 647.62,-984.25 641.62,-978.25 641.62,-972.25 641.62,-972.25 641.62,-960.25 641.62,-960.25 641.62,-954.25 647.62,-948.25 653.62,-948.25 653.62,-948.25 808.38,-948.25 808.38,-948.25 814.38,-948.25 820.38,-954.25 820.38,-960.25 820.38,-960.25 820.38,-972.25 820.38,-972.25 820.38,-978.25 814.38,-984.25 808.38,-984.25"/>
<text xml:space="preserve" text-anchor="middle" x="731" y="-961.2" font-family="Times New Roman,serif" font-size="14.00">69: _copy_twig_file_cached()</text>
</g>
<!-- node_06fad299 -->
<g id="node5" class="node">
<title>node_06fad299</title>
<path fill="#6db33f" stroke="black" d="M836.88,-660.25C836.88,-660.25 625.12,-660.25 625.12,-660.25 619.12,-660.25 613.12,-654.25 613.12,-648.25 613.12,-648.25 613.12,-636.25 613.12,-636.25 613.12,-630.25 619.12,-624.25 625.12,-624.25 625.12,-624.25 836.88,-624.25 836.88,-624.25 842.88,-624.25 848.88,-630.25 848.88,-636.25 848.88,-636.25 848.88,-648.25 848.88,-648.25 848.88,-654.25 842.88,-660.25 836.88,-660.25"/>
<text xml:space="preserve" text-anchor="middle" x="731" y="-637.2" font-family="Times New Roman,serif" font-size="14.00">1242: _extract_joint_names_from_usd()</text>
</g>
<!-- node_561a5528 -->
<g id="node6" class="node">
<title>node_561a5528</title>
<path fill="#6db33f" stroke="black" d="M862.75,-714.25C862.75,-714.25 599.25,-714.25 599.25,-714.25 593.25,-714.25 587.25,-708.25 587.25,-702.25 587.25,-702.25 587.25,-690.25 587.25,-690.25 587.25,-684.25 593.25,-678.25 599.25,-678.25 599.25,-678.25 862.75,-678.25 862.75,-678.25 868.75,-678.25 874.75,-684.25 874.75,-690.25 874.75,-690.25 874.75,-702.25 874.75,-702.25 874.75,-708.25 868.75,-714.25 862.75,-714.25"/>
<text xml:space="preserve" text-anchor="middle" x="731" y="-691.2" font-family="Times New Roman,serif" font-size="14.00">1276: _extract_joint_world_positions_from_usd()</text>
</g>
<!-- node_9a3e98b4 -->
<g id="node7" class="node">
<title>node_9a3e98b4</title>
<path fill="#6db33f" stroke="black" d="M537.75,-660.25C537.75,-660.25 315.5,-660.25 315.5,-660.25 309.5,-660.25 303.5,-654.25 303.5,-648.25 303.5,-648.25 303.5,-636.25 303.5,-636.25 303.5,-630.25 309.5,-624.25 315.5,-624.25 315.5,-624.25 537.75,-624.25 537.75,-624.25 543.75,-624.25 549.75,-630.25 549.75,-636.25 549.75,-636.25 549.75,-648.25 549.75,-648.25 549.75,-654.25 543.75,-660.25 537.75,-660.25"/>
<text xml:space="preserve" text-anchor="middle" x="426.62" y="-637.2" font-family="Times New Roman,serif" font-size="14.00">1697: _extract_species_from_twig_stem()</text>
</g>
<!-- node_0f9e00eb -->
<g id="node8" class="node">
<title>node_0f9e00eb</title>
<path fill="#6db33f" stroke="black" d="M835.38,-768.25C835.38,-768.25 626.62,-768.25 626.62,-768.25 620.62,-768.25 614.62,-762.25 614.62,-756.25 614.62,-756.25 614.62,-744.25 614.62,-744.25 614.62,-738.25 620.62,-732.25 626.62,-732.25 626.62,-732.25 835.38,-732.25 835.38,-732.25 841.38,-732.25 847.38,-738.25 847.38,-744.25 847.38,-744.25 847.38,-756.25 847.38,-756.25 847.38,-762.25 841.38,-768.25 835.38,-768.25"/>
<text xml:space="preserve" text-anchor="middle" x="731" y="-745.2" font-family="Times New Roman,serif" font-size="14.00">1214: _fix_api_schemas_in_assembly()</text>
</g>
<!-- node_93a6daa0 -->
<g id="node9" class="node">
<title>node_93a6daa0</title>
<path fill="#6db33f" stroke="black" d="M462,-714.25C462,-714.25 391.25,-714.25 391.25,-714.25 385.25,-714.25 379.25,-708.25 379.25,-702.25 379.25,-702.25 379.25,-690.25 379.25,-690.25 379.25,-684.25 385.25,-678.25 391.25,-678.25 391.25,-678.25 462,-678.25 462,-678.25 468,-678.25 474,-684.25 474,-690.25 474,-690.25 474,-702.25 474,-702.25 474,-708.25 468,-714.25 462,-714.25"/>
<text xml:space="preserve" text-anchor="middle" x="426.62" y="-691.2" font-family="Times New Roman,serif" font-size="14.00">53: _usd_ext()</text>
</g>
<!-- node_a08d0176 -->
<g id="node10" class="node">
<title>node_a08d0176</title>
<path fill="#cccccc" stroke="black" d="M482.62,-805.25C482.62,-805.25 370.62,-805.25 370.62,-805.25 364.62,-805.25 358.62,-799.25 358.62,-793.25 358.62,-793.25 358.62,-781.25 358.62,-781.25 358.62,-775.25 364.62,-769.25 370.62,-769.25 370.62,-769.25 482.62,-769.25 482.62,-769.25 488.62,-769.25 494.62,-775.25 494.62,-781.25 494.62,-781.25 494.62,-793.25 494.62,-793.25 494.62,-799.25 488.62,-805.25 482.62,-805.25"/>
<text xml:space="preserve" text-anchor="middle" x="426.62" y="-782.2" font-family="Times New Roman,serif" font-size="14.00">89: create_assembly()</text>
</g>
<!-- node_a08d0176&#45;&gt;node_65e7734c -->
<g id="edge1" class="edge">
<title>node_a08d0176&#45;&gt;node_65e7734c</title>
<path fill="none" stroke="#d55e00" stroke-width="2" d="M494.88,-798.92C556.56,-798.92 637.75,-798.92 637.75,-798.92 637.75,-798.92 637.75,-826.77 637.75,-826.77"/>
<polygon fill="#d55e00" stroke="#d55e00" stroke-width="2" points="634.25,-826.77 637.75,-836.77 641.25,-826.77 634.25,-826.77"/>
</g>
<!-- node_a08d0176&#45;&gt;node_ce984a88 -->
<g id="edge2" class="edge">
<title>node_a08d0176&#45;&gt;node_ce984a88</title>
<path fill="none" stroke="#d55e00" stroke-width="2" d="M449.75,-805.69C449.75,-840.47 449.75,-912.25 449.75,-912.25 449.75,-912.25 605.6,-912.25 605.6,-912.25"/>
<polygon fill="#d55e00" stroke="#d55e00" stroke-width="2" points="605.6,-915.75 615.6,-912.25 605.6,-908.75 605.6,-915.75"/>
</g>
<!-- node_a08d0176&#45;&gt;node_495ad05b -->
<g id="edge3" class="edge">
<title>node_a08d0176&#45;&gt;node_495ad05b</title>
<path fill="none" stroke="#d55e00" stroke-width="2" d="M403.75,-805.44C403.75,-849.85 403.75,-960.25 403.75,-960.25 403.75,-960.25 628.12,-960.25 628.12,-960.25"/>
<polygon fill="#d55e00" stroke="#d55e00" stroke-width="2" points="628.12,-963.75 638.12,-960.25 628.12,-956.75 628.12,-963.75"/>
</g>
<!-- node_a08d0176&#45;&gt;node_06fad299 -->
<g id="edge5" class="edge">
<title>node_a08d0176&#45;&gt;node_06fad299</title>
<path fill="none" stroke="#d55e00" stroke-width="2" d="M494.77,-774.92C531.25,-774.92 568.75,-774.92 568.75,-774.92 568.75,-774.92 568.75,-642.25 568.75,-642.25 568.75,-642.25 599.63,-642.25 599.63,-642.25"/>
<polygon fill="#d55e00" stroke="#d55e00" stroke-width="2" points="599.63,-645.75 609.63,-642.25 599.63,-638.75 599.63,-645.75"/>
</g>
<!-- node_a08d0176&#45;&gt;node_561a5528 -->
<g id="edge6" class="edge">
<title>node_a08d0176&#45;&gt;node_561a5528</title>
<path fill="none" stroke="#d55e00" stroke-width="2" d="M494.65,-780.58C542.77,-780.58 598.75,-780.58 598.75,-780.58 598.75,-780.58 598.75,-727.58 598.75,-727.58"/>
<polygon fill="#d55e00" stroke="#d55e00" stroke-width="2" points="602.25,-727.58 598.75,-717.58 595.25,-727.58 602.25,-727.58"/>
</g>
<!-- node_a08d0176&#45;&gt;node_0f9e00eb -->
<g id="edge7" class="edge">
<title>node_a08d0176&#45;&gt;node_0f9e00eb</title>
<path fill="none" stroke="#d55e00" stroke-width="2" d="M484.75,-768.75C484.75,-759.5 484.75,-750.25 484.75,-750.25 484.75,-750.25 601.34,-750.25 601.34,-750.25"/>
<polygon fill="#d55e00" stroke="#d55e00" stroke-width="2" points="601.34,-753.75 611.34,-750.25 601.34,-746.75 601.34,-753.75"/>
</g>
<!-- node_8ab4ce7d -->
<g id="node13" class="node">
<title>node_8ab4ce7d</title>
<path fill="#6db33f" stroke="black" d="M799,-822.25C799,-822.25 663,-822.25 663,-822.25 657,-822.25 651,-816.25 651,-810.25 651,-810.25 651,-798.25 651,-798.25 651,-792.25 657,-786.25 663,-786.25 663,-786.25 799,-786.25 799,-786.25 805,-786.25 811,-792.25 811,-798.25 811,-798.25 811,-810.25 811,-810.25 811,-816.25 805,-822.25 799,-822.25"/>
<text xml:space="preserve" text-anchor="middle" x="731" y="-799.2" font-family="Times New Roman,serif" font-size="14.00">1057: validate_assembly()</text>
</g>
<!-- node_a08d0176&#45;&gt;node_8ab4ce7d -->
<g id="edge8" class="edge">
<title>node_a08d0176&#45;&gt;node_8ab4ce7d</title>
<path fill="none" stroke="#d55e00" stroke-width="2" d="M494.93,-792.58C494.93,-792.58 637.49,-792.58 637.49,-792.58"/>
<polygon fill="#d55e00" stroke="#d55e00" stroke-width="2" points="637.49,-796.08 647.49,-792.58 637.49,-789.08 637.49,-796.08"/>
</g>
<!-- node_5bca1479 -->
<g id="node11" class="node">
<title>node_5bca1479</title>
<path fill="#966f33" stroke="black" d="M228.38,-660.25C228.38,-660.25 37.62,-660.25 37.62,-660.25 31.62,-660.25 25.62,-654.25 25.62,-648.25 25.62,-648.25 25.62,-636.25 25.62,-636.25 25.62,-630.25 31.62,-624.25 37.62,-624.25 37.62,-624.25 228.38,-624.25 228.38,-624.25 234.38,-624.25 240.38,-630.25 240.38,-636.25 240.38,-636.25 240.38,-648.25 240.38,-648.25 240.38,-654.25 234.38,-660.25 228.38,-660.25"/>
<text xml:space="preserve" text-anchor="middle" x="133" y="-637.2" font-family="Times New Roman,serif" font-size="14.00">1706: create_combined_twig_usda()</text>
</g>
<!-- node_5bca1479&#45;&gt;node_9a3e98b4 -->
<g id="edge9" class="edge">
<title>node_5bca1479&#45;&gt;node_9a3e98b4</title>
<path fill="none" stroke="#e69f00" stroke-width="2" d="M240.67,-636.25C240.67,-636.25 290.05,-636.25 290.05,-636.25"/>
<polygon fill="#e69f00" stroke="#e69f00" stroke-width="2" points="290.05,-639.75 300.05,-636.25 290.05,-632.75 290.05,-639.75"/>
</g>
<!-- node_5bca1479&#45;&gt;node_93a6daa0 -->
<g id="edge10" class="edge">
<title>node_5bca1479&#45;&gt;node_93a6daa0</title>
<path fill="none" stroke="#e69f00" stroke-width="2" d="M240.83,-648.25C250.51,-648.25 256.75,-648.25 256.75,-648.25 256.75,-648.25 256.75,-690.25 256.75,-690.25 256.75,-690.25 365.83,-690.25 365.83,-690.25"/>
<polygon fill="#e69f00" stroke="#e69f00" stroke-width="2" points="365.83,-693.75 375.83,-690.25 365.83,-686.75 365.83,-693.75"/>
</g>
<!-- node_27ef4a53 -->
<g id="node12" class="node">
<title>node_27ef4a53</title>
<path fill="#966f33" stroke="black" d="M235.88,-714.25C235.88,-714.25 30.12,-714.25 30.12,-714.25 24.12,-714.25 18.12,-708.25 18.12,-702.25 18.12,-702.25 18.12,-690.25 18.12,-690.25 18.12,-684.25 24.12,-678.25 30.12,-678.25 30.12,-678.25 235.88,-678.25 235.88,-678.25 241.88,-678.25 247.88,-684.25 247.88,-690.25 247.88,-690.25 247.88,-702.25 247.88,-702.25 247.88,-708.25 241.88,-714.25 235.88,-714.25"/>
<text xml:space="preserve" text-anchor="middle" x="133" y="-691.2" font-family="Times New Roman,serif" font-size="14.00">707: export_tree_as_nanite_assembly()</text>
</g>
<!-- node_27ef4a53&#45;&gt;node_495ad05b -->
<g id="edge11" class="edge">
<title>node_27ef4a53&#45;&gt;node_495ad05b</title>
<path fill="none" stroke="#009e73" stroke-width="2" d="M237.75,-714.36C237.75,-775.76 237.75,-972.25 237.75,-972.25 237.75,-972.25 628.36,-972.25 628.36,-972.25"/>
<polygon fill="#009e73" stroke="#009e73" stroke-width="2" points="628.36,-975.75 638.36,-972.25 628.36,-968.75 628.36,-975.75"/>
</g>
<!-- node_27ef4a53&#45;&gt;node_06fad299 -->
<g id="edge13" class="edge">
<title>node_27ef4a53&#45;&gt;node_06fad299</title>
<path fill="none" stroke="#009e73" stroke-width="2" d="M245.75,-678.1C245.75,-650.15 245.75,-599.75 245.75,-599.75 245.75,-599.75 615.75,-599.75 615.75,-599.75 615.75,-599.75 615.75,-610.95 615.75,-610.95"/>
<polygon fill="#009e73" stroke="#009e73" stroke-width="2" points="612.25,-610.95 615.75,-620.95 619.25,-610.95 612.25,-610.95"/>
</g>
<!-- node_27ef4a53&#45;&gt;node_93a6daa0 -->
<g id="edge14" class="edge">
<title>node_27ef4a53&#45;&gt;node_93a6daa0</title>
<path fill="none" stroke="#009e73" stroke-width="2" d="M248.21,-702.25C248.21,-702.25 365.74,-702.25 365.74,-702.25"/>
<polygon fill="#009e73" stroke="#009e73" stroke-width="2" points="365.74,-705.75 375.74,-702.25 365.74,-698.75 365.74,-705.75"/>
</g>
<!-- node_27ef4a53&#45;&gt;node_a08d0176 -->
<g id="edge16" class="edge">
<title>node_27ef4a53&#45;&gt;node_a08d0176</title>
<path fill="none" stroke="#009e73" stroke-width="2" d="M242.75,-714.67C242.75,-741.26 242.75,-787.25 242.75,-787.25 242.75,-787.25 345.13,-787.25 345.13,-787.25"/>
<polygon fill="#009e73" stroke="#009e73" stroke-width="2" points="345.13,-790.75 355.13,-787.25 345.13,-783.75 345.13,-790.75"/>
</g>
<!-- node_ddee9483 -->
<g id="node64" class="node">
<title>node_ddee9483</title>
<path fill="#cccccc" stroke="black" d="M483,-467.25C483,-467.25 370.25,-467.25 370.25,-467.25 364.25,-467.25 358.25,-461.25 358.25,-455.25 358.25,-455.25 358.25,-443.25 358.25,-443.25 358.25,-437.25 364.25,-431.25 370.25,-431.25 370.25,-431.25 483,-431.25 483,-431.25 489,-431.25 495,-437.25 495,-443.25 495,-443.25 495,-455.25 495,-455.25 495,-461.25 489,-467.25 483,-467.25"/>
<text xml:space="preserve" text-anchor="middle" x="426.62" y="-444.2" font-family="Times New Roman,serif" font-size="14.00">70: build_tree_mesh()</text>
</g>
<!-- node_27ef4a53&#45;&gt;node_ddee9483 -->
<g id="edge17" class="edge">
<title>node_27ef4a53&#45;&gt;node_ddee9483</title>
<path fill="none" stroke="#009e73" stroke-width="2" d="M241.75,-678.09C241.75,-621.05 241.75,-449.25 241.75,-449.25 241.75,-449.25 344.76,-449.25 344.76,-449.25"/>
<polygon fill="#009e73" stroke="#009e73" stroke-width="2" points="344.76,-452.75 354.76,-449.25 344.76,-445.75 344.76,-452.75"/>
</g>
<!-- node_fc88d4cb -->
<g id="node65" class="node">
<title>node_fc88d4cb</title>
<path fill="#6db33f" stroke="black" d="M530.25,-521.25C530.25,-521.25 323,-521.25 323,-521.25 317,-521.25 311,-515.25 311,-509.25 311,-509.25 311,-497.25 311,-497.25 311,-491.25 317,-485.25 323,-485.25 323,-485.25 530.25,-485.25 530.25,-485.25 536.25,-485.25 542.25,-491.25 542.25,-497.25 542.25,-497.25 542.25,-509.25 542.25,-509.25 542.25,-515.25 536.25,-521.25 530.25,-521.25"/>
<text xml:space="preserve" text-anchor="middle" x="426.62" y="-498.2" font-family="Times New Roman,serif" font-size="14.00">1673: get_twig_usd_map_for_species()</text>
</g>
<!-- node_27ef4a53&#45;&gt;node_fc88d4cb -->
<g id="edge19" class="edge">
<title>node_27ef4a53&#45;&gt;node_fc88d4cb</title>
<path fill="none" stroke="#009e73" stroke-width="2" d="M243.75,-678.09C243.75,-630.05 243.75,-503.25 243.75,-503.25 243.75,-503.25 297.52,-503.25 297.52,-503.25"/>
<polygon fill="#009e73" stroke="#009e73" stroke-width="2" points="297.52,-506.75 307.52,-503.25 297.52,-499.75 297.52,-506.75"/>
</g>
<!-- node_f3cf4218 -->
<g id="node14" class="node">
<title>node_f3cf4218</title>
<path fill="#6db33f" stroke="black" d="M498.38,-1069.25C498.38,-1069.25 354.88,-1069.25 354.88,-1069.25 348.88,-1069.25 342.88,-1063.25 342.88,-1057.25 342.88,-1057.25 342.88,-1045.25 342.88,-1045.25 342.88,-1039.25 348.88,-1033.25 354.88,-1033.25 354.88,-1033.25 498.38,-1033.25 498.38,-1033.25 504.38,-1033.25 510.38,-1039.25 510.38,-1045.25 510.38,-1045.25 510.38,-1057.25 510.38,-1057.25 510.38,-1063.25 504.38,-1069.25 498.38,-1069.25"/>
<text xml:space="preserve" text-anchor="middle" x="426.62" y="-1046.2" font-family="Times New Roman,serif" font-size="14.00">19: generate_helios_scene()</text>
</g>
<!-- node_9cb14133 -->
<g id="node15" class="node">
<title>node_9cb14133</title>
<path fill="#cccccc" stroke="black" d="M833.88,-1154.25C833.88,-1154.25 628.12,-1154.25 628.12,-1154.25 622.12,-1154.25 616.12,-1148.25 616.12,-1142.25 616.12,-1142.25 616.12,-1130.25 616.12,-1130.25 616.12,-1124.25 622.12,-1118.25 628.12,-1118.25 628.12,-1118.25 833.88,-1118.25 833.88,-1118.25 839.88,-1118.25 845.88,-1124.25 845.88,-1130.25 845.88,-1130.25 845.88,-1142.25 845.88,-1142.25 845.88,-1148.25 839.88,-1154.25 833.88,-1154.25"/>
<text xml:space="preserve" text-anchor="middle" x="731" y="-1131.2" font-family="Times New Roman,serif" font-size="14.00">650: _bake_classified_twig_instances()</text>
</g>
<!-- node_d68bd99d -->
<g id="node20" class="node">
<title>node_d68bd99d</title>
<path fill="#6db33f" stroke="black" d="M1143.12,-1154.25C1143.12,-1154.25 975.62,-1154.25 975.62,-1154.25 969.62,-1154.25 963.62,-1148.25 963.62,-1142.25 963.62,-1142.25 963.62,-1130.25 963.62,-1130.25 963.62,-1124.25 969.62,-1118.25 975.62,-1118.25 975.62,-1118.25 1143.12,-1118.25 1143.12,-1118.25 1149.12,-1118.25 1155.12,-1124.25 1155.12,-1130.25 1155.12,-1130.25 1155.12,-1142.25 1155.12,-1142.25 1155.12,-1148.25 1149.12,-1154.25 1143.12,-1154.25"/>
<text xml:space="preserve" text-anchor="middle" x="1059.38" y="-1131.2" font-family="Times New Roman,serif" font-size="14.00">594: _quat_to_rotation_matrix()</text>
</g>
<!-- node_9cb14133&#45;&gt;node_d68bd99d -->
<g id="edge20" class="edge">
<title>node_9cb14133&#45;&gt;node_d68bd99d</title>
<path fill="none" stroke="#009e73" stroke-width="2" d="M846.31,-1136.25C846.31,-1136.25 950.33,-1136.25 950.33,-1136.25"/>
<polygon fill="#009e73" stroke="#009e73" stroke-width="2" points="950.33,-1139.75 960.33,-1136.25 950.33,-1132.75 950.33,-1139.75"/>
</g>
<!-- node_c239a7b2 -->
<g id="node16" class="node">
<title>node_c239a7b2</title>
<path fill="#966f33" stroke="black" d="M805,-1208.25C805,-1208.25 657,-1208.25 657,-1208.25 651,-1208.25 645,-1202.25 645,-1196.25 645,-1196.25 645,-1184.25 645,-1184.25 645,-1178.25 651,-1172.25 657,-1172.25 657,-1172.25 805,-1172.25 805,-1172.25 811,-1172.25 817,-1178.25 817,-1184.25 817,-1184.25 817,-1196.25 817,-1196.25 817,-1202.25 811,-1208.25 805,-1208.25"/>
<text xml:space="preserve" text-anchor="middle" x="731" y="-1185.2" font-family="Times New Roman,serif" font-size="14.00">606: _bake_twig_instances()</text>
</g>
<!-- node_c239a7b2&#45;&gt;node_d68bd99d -->
<g id="edge21" class="edge">
<title>node_c239a7b2&#45;&gt;node_d68bd99d</title>
<path fill="none" stroke="#56b4e9" stroke-width="2" d="M817.48,-1184.25C885.11,-1184.25 967.75,-1184.25 967.75,-1184.25 967.75,-1184.25 967.75,-1167.7 967.75,-1167.7"/>
<polygon fill="#56b4e9" stroke="#56b4e9" stroke-width="2" points="971.25,-1167.7 967.75,-1157.7 964.25,-1167.7 971.25,-1167.7"/>
</g>
<!-- node_96a3d3ca -->
<g id="node17" class="node">
<title>node_96a3d3ca</title>
<path fill="#cccccc" stroke="black" d="M494.25,-1168.25C494.25,-1168.25 359,-1168.25 359,-1168.25 353,-1168.25 347,-1162.25 347,-1156.25 347,-1156.25 347,-1144.25 347,-1144.25 347,-1138.25 353,-1132.25 359,-1132.25 359,-1132.25 494.25,-1132.25 494.25,-1132.25 500.25,-1132.25 506.25,-1138.25 506.25,-1144.25 506.25,-1144.25 506.25,-1156.25 506.25,-1156.25 506.25,-1162.25 500.25,-1168.25 494.25,-1168.25"/>
<text xml:space="preserve" text-anchor="middle" x="426.62" y="-1145.2" font-family="Times New Roman,serif" font-size="14.00">286: _extract_tree_mesh()</text>
</g>
<!-- node_96a3d3ca&#45;&gt;node_9cb14133 -->
<g id="edge22" class="edge">
<title>node_96a3d3ca&#45;&gt;node_9cb14133</title>
<path fill="none" stroke="#56b4e9" stroke-width="2" d="M506.6,-1143.25C506.6,-1143.25 602.76,-1143.25 602.76,-1143.25"/>
<polygon fill="#56b4e9" stroke="#56b4e9" stroke-width="2" points="602.76,-1146.75 612.76,-1143.25 602.76,-1139.75 602.76,-1146.75"/>
</g>
<!-- node_83fe2826 -->
<g id="node21" class="node">
<title>node_83fe2826</title>
<path fill="#cccccc" stroke="black" d="M810.25,-1262.25C810.25,-1262.25 651.75,-1262.25 651.75,-1262.25 645.75,-1262.25 639.75,-1256.25 639.75,-1250.25 639.75,-1250.25 639.75,-1238.25 639.75,-1238.25 639.75,-1232.25 645.75,-1226.25 651.75,-1226.25 651.75,-1226.25 810.25,-1226.25 810.25,-1226.25 816.25,-1226.25 822.25,-1232.25 822.25,-1238.25 822.25,-1238.25 822.25,-1250.25 822.25,-1250.25 822.25,-1256.25 816.25,-1262.25 810.25,-1262.25"/>
<text xml:space="preserve" text-anchor="middle" x="731" y="-1239.2" font-family="Times New Roman,serif" font-size="14.00">159: _read_tree_components()</text>
</g>
<!-- node_96a3d3ca&#45;&gt;node_83fe2826 -->
<g id="edge23" class="edge">
<title>node_96a3d3ca&#45;&gt;node_83fe2826</title>
<path fill="none" stroke="#56b4e9" stroke-width="2" d="M506.29,-1161.25C517.2,-1161.25 524.75,-1161.25 524.75,-1161.25 524.75,-1161.25 524.75,-1234.25 524.75,-1234.25 524.75,-1234.25 626.31,-1234.25 626.31,-1234.25"/>
<polygon fill="#56b4e9" stroke="#56b4e9" stroke-width="2" points="626.31,-1237.75 636.31,-1234.25 626.31,-1230.75 626.31,-1237.75"/>
</g>
<!-- node_cc05f598 -->
<g id="node18" class="node">
<title>node_cc05f598</title>
<path fill="#6db33f" stroke="black" d="M492.75,-1242.25C492.75,-1242.25 360.5,-1242.25 360.5,-1242.25 354.5,-1242.25 348.5,-1236.25 348.5,-1230.25 348.5,-1230.25 348.5,-1218.25 348.5,-1218.25 348.5,-1212.25 354.5,-1206.25 360.5,-1206.25 360.5,-1206.25 492.75,-1206.25 492.75,-1206.25 498.75,-1206.25 504.75,-1212.25 504.75,-1218.25 504.75,-1218.25 504.75,-1230.25 504.75,-1230.25 504.75,-1236.25 498.75,-1242.25 492.75,-1242.25"/>
<text xml:space="preserve" text-anchor="middle" x="426.62" y="-1219.2" font-family="Times New Roman,serif" font-size="14.00">954: _find_bark_texture()</text>
</g>
<!-- node_29880eb3 -->
<g id="node19" class="node">
<title>node_29880eb3</title>
<path fill="#6db33f" stroke="black" d="M1100.75,-1424.25C1100.75,-1424.25 1018,-1424.25 1018,-1424.25 1012,-1424.25 1006,-1418.25 1006,-1412.25 1006,-1412.25 1006,-1400.25 1006,-1400.25 1006,-1394.25 1012,-1388.25 1018,-1388.25 1018,-1388.25 1100.75,-1388.25 1100.75,-1388.25 1106.75,-1388.25 1112.75,-1394.25 1112.75,-1400.25 1112.75,-1400.25 1112.75,-1412.25 1112.75,-1412.25 1112.75,-1418.25 1106.75,-1424.25 1100.75,-1424.25"/>
<text xml:space="preserve" text-anchor="middle" x="1059.38" y="-1401.2" font-family="Times New Roman,serif" font-size="14.00">967: _fmt_vert()</text>
</g>
<!-- node_8629ee3a -->
<g id="node22" class="node">
<title>node_8629ee3a</title>
<path fill="#6db33f" stroke="black" d="M1120.25,-1208.25C1120.25,-1208.25 998.5,-1208.25 998.5,-1208.25 992.5,-1208.25 986.5,-1202.25 986.5,-1196.25 986.5,-1196.25 986.5,-1184.25 986.5,-1184.25 986.5,-1178.25 992.5,-1172.25 998.5,-1172.25 998.5,-1172.25 1120.25,-1172.25 1120.25,-1172.25 1126.25,-1172.25 1132.25,-1178.25 1132.25,-1184.25 1132.25,-1184.25 1132.25,-1196.25 1132.25,-1196.25 1132.25,-1202.25 1126.25,-1208.25 1120.25,-1208.25"/>
<text xml:space="preserve" text-anchor="middle" x="1059.38" y="-1185.2" font-family="Times New Roman,serif" font-size="14.00">378: _read_tree_mesh()</text>
</g>
<!-- node_83fe2826&#45;&gt;node_8629ee3a -->
<g id="edge24" class="edge">
<title>node_83fe2826&#45;&gt;node_8629ee3a</title>
<path fill="none" stroke="#d55e00" stroke-width="2" d="M822.46,-1238.25C831.69,-1238.25 837.75,-1238.25 837.75,-1238.25 837.75,-1238.25 837.75,-1196.25 837.75,-1196.25 837.75,-1196.25 973.17,-1196.25 973.17,-1196.25"/>
<polygon fill="#d55e00" stroke="#d55e00" stroke-width="2" points="973.17,-1199.75 983.17,-1196.25 973.17,-1192.75 973.17,-1199.75"/>
</g>
<!-- node_9700d89a -->
<g id="node23" class="node">
<title>node_9700d89a</title>
<path fill="#6db33f" stroke="black" d="M1131.88,-1262.25C1131.88,-1262.25 986.88,-1262.25 986.88,-1262.25 980.88,-1262.25 974.88,-1256.25 974.88,-1250.25 974.88,-1250.25 974.88,-1238.25 974.88,-1238.25 974.88,-1232.25 980.88,-1226.25 986.88,-1226.25 986.88,-1226.25 1131.88,-1226.25 1131.88,-1226.25 1137.88,-1226.25 1143.88,-1232.25 1143.88,-1238.25 1143.88,-1238.25 1143.88,-1250.25 1143.88,-1250.25 1143.88,-1256.25 1137.88,-1262.25 1131.88,-1262.25"/>
<text xml:space="preserve" text-anchor="middle" x="1059.38" y="-1239.2" font-family="Times New Roman,serif" font-size="14.00">425: _read_twig_instancer()</text>
</g>
<!-- node_83fe2826&#45;&gt;node_9700d89a -->
<g id="edge25" class="edge">
<title>node_83fe2826&#45;&gt;node_9700d89a</title>
<path fill="none" stroke="#d55e00" stroke-width="2" d="M822.47,-1250.25C822.47,-1250.25 961.56,-1250.25 961.56,-1250.25"/>
<polygon fill="#d55e00" stroke="#d55e00" stroke-width="2" points="961.56,-1253.75 971.56,-1250.25 961.56,-1246.75 961.56,-1253.75"/>
</g>
<!-- node_6923953b -->
<g id="node24" class="node">
<title>node_6923953b</title>
<path fill="#6db33f" stroke="black" d="M1147.62,-1316.25C1147.62,-1316.25 971.12,-1316.25 971.12,-1316.25 965.12,-1316.25 959.12,-1310.25 959.12,-1304.25 959.12,-1304.25 959.12,-1292.25 959.12,-1292.25 959.12,-1286.25 965.12,-1280.25 971.12,-1280.25 971.12,-1280.25 1147.62,-1280.25 1147.62,-1280.25 1153.62,-1280.25 1159.62,-1286.25 1159.62,-1292.25 1159.62,-1292.25 1159.62,-1304.25 1159.62,-1304.25 1159.62,-1310.25 1153.62,-1316.25 1147.62,-1316.25"/>
<text xml:space="preserve" text-anchor="middle" x="1059.38" y="-1293.2" font-family="Times New Roman,serif" font-size="14.00">54: _read_twig_mesh_classified()</text>
</g>
<!-- node_83fe2826&#45;&gt;node_6923953b -->
<g id="edge26" class="edge">
<title>node_83fe2826&#45;&gt;node_6923953b</title>
<path fill="none" stroke="#d55e00" stroke-width="2" d="M817.75,-1262.67C817.75,-1276.21 817.75,-1292.25 817.75,-1292.25 817.75,-1292.25 945.63,-1292.25 945.63,-1292.25"/>
<polygon fill="#d55e00" stroke="#d55e00" stroke-width="2" points="945.63,-1295.75 955.63,-1292.25 945.63,-1288.75 945.63,-1295.75"/>
</g>
<!-- node_703d9aa3 -->
<g id="node25" class="node">
<title>node_703d9aa3</title>
<path fill="#6db33f" stroke="black" d="M1119.5,-1370.25C1119.5,-1370.25 999.25,-1370.25 999.25,-1370.25 993.25,-1370.25 987.25,-1364.25 987.25,-1358.25 987.25,-1358.25 987.25,-1346.25 987.25,-1346.25 987.25,-1340.25 993.25,-1334.25 999.25,-1334.25 999.25,-1334.25 1119.5,-1334.25 1119.5,-1334.25 1125.5,-1334.25 1131.5,-1340.25 1131.5,-1346.25 1131.5,-1346.25 1131.5,-1358.25 1131.5,-1358.25 1131.5,-1364.25 1125.5,-1370.25 1119.5,-1370.25"/>
<text xml:space="preserve" text-anchor="middle" x="1059.38" y="-1347.2" font-family="Times New Roman,serif" font-size="14.00">49: _resolve_to_static()</text>
</g>
<!-- node_83fe2826&#45;&gt;node_703d9aa3 -->
<g id="edge27" class="edge">
<title>node_83fe2826&#45;&gt;node_703d9aa3</title>
<path fill="none" stroke="#d55e00" stroke-width="2" d="M813.75,-1262.57C813.75,-1293.38 813.75,-1352.25 813.75,-1352.25 813.75,-1352.25 973.98,-1352.25 973.98,-1352.25"/>
<polygon fill="#d55e00" stroke="#d55e00" stroke-width="2" points="973.98,-1355.75 983.98,-1352.25 973.98,-1348.75 973.98,-1355.75"/>
</g>
<!-- node_51f337f4 -->
<g id="node26" class="node">
<title>node_51f337f4</title>
<path fill="#cccccc" stroke="black" d="M835.75,-1424.25C835.75,-1424.25 626.25,-1424.25 626.25,-1424.25 620.25,-1424.25 614.25,-1418.25 614.25,-1412.25 614.25,-1412.25 614.25,-1400.25 614.25,-1400.25 614.25,-1394.25 620.25,-1388.25 626.25,-1388.25 626.25,-1388.25 835.75,-1388.25 835.75,-1388.25 841.75,-1388.25 847.75,-1394.25 847.75,-1400.25 847.75,-1400.25 847.75,-1412.25 847.75,-1412.25 847.75,-1418.25 841.75,-1424.25 835.75,-1424.25"/>
<text xml:space="preserve" text-anchor="middle" x="731" y="-1401.2" font-family="Times New Roman,serif" font-size="14.00">710: _stream_classified_twig_vertices()</text>
</g>
<!-- node_51f337f4&#45;&gt;node_29880eb3 -->
<g id="edge28" class="edge">
<title>node_51f337f4&#45;&gt;node_29880eb3</title>
<path fill="none" stroke="#f0e442" stroke-width="2" d="M848.16,-1412.25C848.16,-1412.25 992.66,-1412.25 992.66,-1412.25"/>
<polygon fill="#f0e442" stroke="#f0e442" stroke-width="2" points="992.66,-1415.75 1002.66,-1412.25 992.66,-1408.75 992.66,-1415.75"/>
</g>
<!-- node_51f337f4&#45;&gt;node_d68bd99d -->
<g id="edge29" class="edge">
<title>node_51f337f4&#45;&gt;node_d68bd99d</title>
<path fill="none" stroke="#f0e442" stroke-width="2" d="M829.75,-1387.9C829.75,-1351.63 829.75,-1274.25 829.75,-1274.25 829.75,-1274.25 970.75,-1274.25 970.75,-1274.25 970.75,-1274.25 970.75,-1167.6 970.75,-1167.6"/>
<polygon fill="#f0e442" stroke="#f0e442" stroke-width="2" points="974.25,-1167.6 970.75,-1157.6 967.25,-1167.6 974.25,-1167.6"/>
</g>
<!-- node_d71f6c84 -->
<g id="node27" class="node">
<title>node_d71f6c84</title>
<path fill="#6db33f" stroke="black" d="M824.12,-1498.25C824.12,-1498.25 637.88,-1498.25 637.88,-1498.25 631.88,-1498.25 625.88,-1492.25 625.88,-1486.25 625.88,-1486.25 625.88,-1474.25 625.88,-1474.25 625.88,-1468.25 631.88,-1462.25 637.88,-1462.25 637.88,-1462.25 824.12,-1462.25 824.12,-1462.25 830.12,-1462.25 836.12,-1468.25 836.12,-1474.25 836.12,-1474.25 836.12,-1486.25 836.12,-1486.25 836.12,-1492.25 830.12,-1498.25 824.12,-1498.25"/>
<text xml:space="preserve" text-anchor="middle" x="731" y="-1475.2" font-family="Times New Roman,serif" font-size="14.00">755: _write_classified_twig_faces()</text>
</g>
<!-- node_f555a779 -->
<g id="node28" class="node">
<title>node_f555a779</title>
<path fill="#6db33f" stroke="black" d="M798.25,-1370.25C798.25,-1370.25 663.75,-1370.25 663.75,-1370.25 657.75,-1370.25 651.75,-1364.25 651.75,-1358.25 651.75,-1358.25 651.75,-1346.25 651.75,-1346.25 651.75,-1340.25 657.75,-1334.25 663.75,-1334.25 663.75,-1334.25 798.25,-1334.25 798.25,-1334.25 804.25,-1334.25 810.25,-1340.25 810.25,-1346.25 810.25,-1346.25 810.25,-1358.25 810.25,-1358.25 810.25,-1364.25 804.25,-1370.25 798.25,-1370.25"/>
<text xml:space="preserve" text-anchor="middle" x="731" y="-1347.2" font-family="Times New Roman,serif" font-size="14.00">1193: _write_helios_mtl()</text>
</g>
<!-- node_a2090468 -->
<g id="node29" class="node">
<title>node_a2090468</title>
<path fill="#cccccc" stroke="black" d="M774.62,-1316.25C774.62,-1316.25 687.38,-1316.25 687.38,-1316.25 681.38,-1316.25 675.38,-1310.25 675.38,-1304.25 675.38,-1304.25 675.38,-1292.25 675.38,-1292.25 675.38,-1286.25 681.38,-1280.25 687.38,-1280.25 687.38,-1280.25 774.62,-1280.25 774.62,-1280.25 780.62,-1280.25 786.62,-1286.25 786.62,-1292.25 786.62,-1292.25 786.62,-1304.25 786.62,-1304.25 786.62,-1310.25 780.62,-1316.25 774.62,-1316.25"/>
<text xml:space="preserve" text-anchor="middle" x="731" y="-1293.2" font-family="Times New Roman,serif" font-size="14.00">975: _write_obj()</text>
</g>
<!-- node_a2090468&#45;&gt;node_29880eb3 -->
<g id="edge30" class="edge">
<title>node_a2090468&#45;&gt;node_29880eb3</title>
<path fill="none" stroke="#000000" stroke-width="2" d="M787.03,-1304.25C825.54,-1304.25 869.75,-1304.25 869.75,-1304.25 869.75,-1304.25 869.75,-1400.25 869.75,-1400.25 869.75,-1400.25 992.52,-1400.25 992.52,-1400.25"/>
<polygon fill="#000000" stroke="#000000" stroke-width="2" points="992.52,-1403.75 1002.52,-1400.25 992.52,-1396.75 992.52,-1403.75"/>
</g>
<!-- node_e7efcbba -->
<g id="node30" class="node">
<title>node_e7efcbba</title>
<path fill="#cccccc" stroke="black" d="M500.62,-1498.25C500.62,-1498.25 352.62,-1498.25 352.62,-1498.25 346.62,-1498.25 340.62,-1492.25 340.62,-1486.25 340.62,-1486.25 340.62,-1474.25 340.62,-1474.25 340.62,-1468.25 346.62,-1462.25 352.62,-1462.25 352.62,-1462.25 500.62,-1462.25 500.62,-1462.25 506.62,-1462.25 512.62,-1468.25 512.62,-1474.25 512.62,-1474.25 512.62,-1486.25 512.62,-1486.25 512.62,-1492.25 506.62,-1498.25 500.62,-1498.25"/>
<text xml:space="preserve" text-anchor="middle" x="426.62" y="-1475.2" font-family="Times New Roman,serif" font-size="14.00">811: _write_obj_streaming()</text>
</g>
<!-- node_e7efcbba&#45;&gt;node_29880eb3 -->
<g id="edge33" class="edge">
<title>node_e7efcbba&#45;&gt;node_29880eb3</title>
<path fill="none" stroke="#56b4e9" stroke-width="2" d="M501.75,-1461.79C501.75,-1457.05 501.75,-1453.25 501.75,-1453.25 501.75,-1453.25 1059.75,-1453.25 1059.75,-1453.25 1059.75,-1453.25 1059.75,-1437.58 1059.75,-1437.58"/>
<polygon fill="#56b4e9" stroke="#56b4e9" stroke-width="2" points="1063.25,-1437.58 1059.75,-1427.58 1056.25,-1437.58 1063.25,-1437.58"/>
</g>
<!-- node_e7efcbba&#45;&gt;node_51f337f4 -->
<g id="edge34" class="edge">
<title>node_e7efcbba&#45;&gt;node_51f337f4</title>
<path fill="none" stroke="#56b4e9" stroke-width="2" d="M507.75,-1462.08C507.75,-1443.16 507.75,-1416.25 507.75,-1416.25 507.75,-1416.25 600.79,-1416.25 600.79,-1416.25"/>
<polygon fill="#56b4e9" stroke="#56b4e9" stroke-width="2" points="600.79,-1419.75 610.79,-1416.25 600.79,-1412.75 600.79,-1419.75"/>
</g>
<!-- node_e7efcbba&#45;&gt;node_d71f6c84 -->
<g id="edge35" class="edge">
<title>node_e7efcbba&#45;&gt;node_d71f6c84</title>
<path fill="none" stroke="#56b4e9" stroke-width="2" d="M513.03,-1480.25C513.03,-1480.25 612.4,-1480.25 612.4,-1480.25"/>
<polygon fill="#56b4e9" stroke="#56b4e9" stroke-width="2" points="612.4,-1483.75 622.4,-1480.25 612.4,-1476.75 612.4,-1483.75"/>
</g>
<!-- node_3b6089d1 -->
<g id="node31" class="node">
<title>node_3b6089d1</title>
<path fill="#6db33f" stroke="black" d="M484.88,-1444.25C484.88,-1444.25 368.38,-1444.25 368.38,-1444.25 362.38,-1444.25 356.38,-1438.25 356.38,-1432.25 356.38,-1432.25 356.38,-1420.25 356.38,-1420.25 356.38,-1414.25 362.38,-1408.25 368.38,-1408.25 368.38,-1408.25 484.88,-1408.25 484.88,-1408.25 490.88,-1408.25 496.88,-1414.25 496.88,-1420.25 496.88,-1420.25 496.88,-1432.25 496.88,-1432.25 496.88,-1438.25 490.88,-1444.25 484.88,-1444.25"/>
<text xml:space="preserve" text-anchor="middle" x="426.62" y="-1421.2" font-family="Times New Roman,serif" font-size="14.00">43: clear_twig_cache()</text>
</g>
<!-- node_a0e14097 -->
<g id="node32" class="node">
<title>node_a0e14097</title>
<path fill="#966f33" stroke="black" d="M201.75,-1205.25C201.75,-1205.25 64.25,-1205.25 64.25,-1205.25 58.25,-1205.25 52.25,-1199.25 52.25,-1193.25 52.25,-1193.25 52.25,-1181.25 52.25,-1181.25 52.25,-1175.25 58.25,-1169.25 64.25,-1169.25 64.25,-1169.25 201.75,-1169.25 201.75,-1169.25 207.75,-1169.25 213.75,-1175.25 213.75,-1181.25 213.75,-1181.25 213.75,-1193.25 213.75,-1193.25 213.75,-1199.25 207.75,-1205.25 201.75,-1205.25"/>
<text xml:space="preserve" text-anchor="middle" x="133" y="-1182.2" font-family="Times New Roman,serif" font-size="14.00">328: convert_tree_to_obj()</text>
</g>
<!-- node_a0e14097&#45;&gt;node_96a3d3ca -->
<g id="edge36" class="edge">
<title>node_a0e14097&#45;&gt;node_96a3d3ca</title>
<path fill="none" stroke="#cc79a7" stroke-width="2" d="M132.75,-1168.75C132.75,-1159.5 132.75,-1150.25 132.75,-1150.25 132.75,-1150.25 333.68,-1150.25 333.68,-1150.25"/>
<polygon fill="#cc79a7" stroke="#cc79a7" stroke-width="2" points="333.68,-1153.75 343.68,-1150.25 333.68,-1146.75 333.68,-1153.75"/>
</g>
<!-- node_a0e14097&#45;&gt;node_cc05f598 -->
<g id="edge37" class="edge">
<title>node_a0e14097&#45;&gt;node_cc05f598</title>
<path fill="none" stroke="#cc79a7" stroke-width="2" d="M214.05,-1197C300.99,-1197 426.75,-1197 426.75,-1197 426.75,-1197 426.75,-1197.89 426.75,-1197.89"/>
<polygon fill="#cc79a7" stroke="#cc79a7" stroke-width="2" points="423.25,-1192.9 426.75,-1202.9 430.25,-1192.9 423.25,-1192.9"/>
</g>
<!-- node_a0e14097&#45;&gt;node_f555a779 -->
<g id="edge38" class="edge">
<title>node_a0e14097&#45;&gt;node_f555a779</title>
<path fill="none" stroke="#cc79a7" stroke-width="2" d="M214.24,-1188.75C333.45,-1188.75 541.75,-1188.75 541.75,-1188.75 541.75,-1188.75 541.75,-1339.25 541.75,-1339.25 541.75,-1339.25 638.26,-1339.25 638.26,-1339.25"/>
<polygon fill="#cc79a7" stroke="#cc79a7" stroke-width="2" points="638.26,-1342.75 648.26,-1339.25 638.26,-1335.75 638.26,-1342.75"/>
</g>
<!-- node_a0e14097&#45;&gt;node_a2090468 -->
<g id="edge39" class="edge">
<title>node_a0e14097&#45;&gt;node_a2090468</title>
<path fill="none" stroke="#cc79a7" stroke-width="2" d="M213.86,-1180.5C333.77,-1180.5 544.75,-1180.5 544.75,-1180.5 544.75,-1180.5 544.75,-1298.25 544.75,-1298.25 544.75,-1298.25 662.09,-1298.25 662.09,-1298.25"/>
<polygon fill="#cc79a7" stroke="#cc79a7" stroke-width="2" points="662.09,-1301.75 672.09,-1298.25 662.09,-1294.75 662.09,-1301.75"/>
</g>
<!-- node_80f39f02 -->
<g id="node33" class="node">
<title>node_80f39f02</title>
<path fill="#966f33" stroke="black" d="M198.75,-1316.25C198.75,-1316.25 67.25,-1316.25 67.25,-1316.25 61.25,-1316.25 55.25,-1310.25 55.25,-1304.25 55.25,-1304.25 55.25,-1292.25 55.25,-1292.25 55.25,-1286.25 61.25,-1280.25 67.25,-1280.25 67.25,-1280.25 198.75,-1280.25 198.75,-1280.25 204.75,-1280.25 210.75,-1286.25 210.75,-1292.25 210.75,-1292.25 210.75,-1304.25 210.75,-1304.25 210.75,-1310.25 204.75,-1316.25 198.75,-1316.25"/>
<text xml:space="preserve" text-anchor="middle" x="133" y="-1293.2" font-family="Times New Roman,serif" font-size="14.00">1253: export_forest_obj()</text>
</g>
<!-- node_80f39f02&#45;&gt;node_f3cf4218 -->
<g id="edge40" class="edge">
<title>node_80f39f02&#45;&gt;node_f3cf4218</title>
<path fill="none" stroke="#56b4e9" stroke-width="2" d="M211.14,-1292.25C227.42,-1292.25 239.75,-1292.25 239.75,-1292.25 239.75,-1292.25 239.75,-1051.25 239.75,-1051.25 239.75,-1051.25 329.45,-1051.25 329.45,-1051.25"/>
<polygon fill="#56b4e9" stroke="#56b4e9" stroke-width="2" points="329.45,-1054.75 339.45,-1051.25 329.45,-1047.75 329.45,-1054.75"/>
</g>
<!-- node_80f39f02&#45;&gt;node_cc05f598 -->
<g id="edge41" class="edge">
<title>node_80f39f02&#45;&gt;node_cc05f598</title>
<path fill="none" stroke="#56b4e9" stroke-width="2" d="M93.75,-1279.96C93.75,-1258.04 93.75,-1224.25 93.75,-1224.25 93.75,-1224.25 335.13,-1224.25 335.13,-1224.25"/>
<polygon fill="#56b4e9" stroke="#56b4e9" stroke-width="2" points="335.13,-1227.75 345.13,-1224.25 335.13,-1220.75 335.13,-1227.75"/>
</g>
<!-- node_80f39f02&#45;&gt;node_83fe2826 -->
<g id="edge42" class="edge">
<title>node_80f39f02&#45;&gt;node_83fe2826</title>
<path fill="none" stroke="#56b4e9" stroke-width="2" d="M132.75,-1279.81C132.75,-1267.01 132.75,-1252.25 132.75,-1252.25 132.75,-1252.25 626.46,-1252.25 626.46,-1252.25"/>
<polygon fill="#56b4e9" stroke="#56b4e9" stroke-width="2" points="626.46,-1255.75 636.46,-1252.25 626.46,-1248.75 626.46,-1255.75"/>
</g>
<!-- node_80f39f02&#45;&gt;node_f555a779 -->
<g id="edge43" class="edge">
<title>node_80f39f02&#45;&gt;node_f555a779</title>
<path fill="none" stroke="#56b4e9" stroke-width="2" d="M171.75,-1316.66C171.75,-1331.27 171.75,-1349.25 171.75,-1349.25 171.75,-1349.25 638.44,-1349.25 638.44,-1349.25"/>
<polygon fill="#56b4e9" stroke="#56b4e9" stroke-width="2" points="638.44,-1352.75 648.44,-1349.25 638.44,-1345.75 638.44,-1352.75"/>
</g>
<!-- node_80f39f02&#45;&gt;node_a2090468 -->
<g id="edge44" class="edge">
<title>node_80f39f02&#45;&gt;node_a2090468</title>
<path fill="none" stroke="#56b4e9" stroke-width="2" d="M171.75,-1279.76C171.75,-1273.59 171.75,-1268.25 171.75,-1268.25 171.75,-1268.25 730.75,-1268.25 730.75,-1268.25 730.75,-1268.25 730.75,-1269.4 730.75,-1269.4"/>
<polygon fill="#56b4e9" stroke="#56b4e9" stroke-width="2" points="727.25,-1266.74 730.75,-1276.74 734.25,-1266.74 727.25,-1266.74"/>
</g>
<!-- node_80f39f02&#45;&gt;node_e7efcbba -->
<g id="edge45" class="edge">
<title>node_80f39f02&#45;&gt;node_e7efcbba</title>
<path fill="none" stroke="#56b4e9" stroke-width="2" d="M93.75,-1316.7C93.75,-1362.97 93.75,-1480.25 93.75,-1480.25 93.75,-1480.25 327.44,-1480.25 327.44,-1480.25"/>
<polygon fill="#56b4e9" stroke="#56b4e9" stroke-width="2" points="327.44,-1483.75 337.44,-1480.25 327.44,-1476.75 327.44,-1483.75"/>
</g>
<!-- node_80f39f02&#45;&gt;node_3b6089d1 -->
<g id="edge46" class="edge">
<title>node_80f39f02&#45;&gt;node_3b6089d1</title>
<path fill="none" stroke="#56b4e9" stroke-width="2" d="M132.75,-1316.59C132.75,-1351.98 132.75,-1426.25 132.75,-1426.25 132.75,-1426.25 343.21,-1426.25 343.21,-1426.25"/>
<polygon fill="#56b4e9" stroke="#56b4e9" stroke-width="2" points="343.21,-1429.75 353.21,-1426.25 343.21,-1422.75 343.21,-1429.75"/>
</g>
<!-- node_0597327b -->
<g id="node35" class="node">
<title>node_0597327b</title>
<path fill="#cccccc" stroke="black" d="M527.62,-1316.25C527.62,-1316.25 325.62,-1316.25 325.62,-1316.25 319.62,-1316.25 313.62,-1310.25 313.62,-1304.25 313.62,-1304.25 313.62,-1292.25 313.62,-1292.25 313.62,-1286.25 319.62,-1280.25 325.62,-1280.25 325.62,-1280.25 527.62,-1280.25 527.62,-1280.25 533.62,-1280.25 539.62,-1286.25 539.62,-1292.25 539.62,-1292.25 539.62,-1304.25 539.62,-1304.25 539.62,-1310.25 533.62,-1316.25 527.62,-1316.25"/>
<text xml:space="preserve" text-anchor="middle" x="426.62" y="-1293.2" font-family="Times New Roman,serif" font-size="14.00">859: write_combined_obj_streaming()</text>
</g>
<!-- node_80f39f02&#45;&gt;node_0597327b -->
<g id="edge47" class="edge">
<title>node_80f39f02&#45;&gt;node_0597327b</title>
<path fill="none" stroke="#56b4e9" stroke-width="2" d="M210.92,-1304.25C210.92,-1304.25 300.21,-1304.25 300.21,-1304.25"/>
<polygon fill="#56b4e9" stroke="#56b4e9" stroke-width="2" points="300.21,-1307.75 310.21,-1304.25 300.21,-1300.75 300.21,-1307.75"/>
</g>
<!-- node_6265c433 -->
<g id="node34" class="node">
<title>node_6265c433</title>
<path fill="#966f33" stroke="black" d="M500.62,-1390.25C500.62,-1390.25 352.62,-1390.25 352.62,-1390.25 346.62,-1390.25 340.62,-1384.25 340.62,-1378.25 340.62,-1378.25 340.62,-1366.25 340.62,-1366.25 340.62,-1360.25 346.62,-1354.25 352.62,-1354.25 352.62,-1354.25 500.62,-1354.25 500.62,-1354.25 506.62,-1354.25 512.62,-1360.25 512.62,-1366.25 512.62,-1366.25 512.62,-1378.25 512.62,-1378.25 512.62,-1384.25 506.62,-1390.25 500.62,-1390.25"/>
<text xml:space="preserve" text-anchor="middle" x="426.62" y="-1367.2" font-family="Times New Roman,serif" font-size="14.00">1072: write_combined_obj()</text>
</g>
<!-- node_6265c433&#45;&gt;node_29880eb3 -->
<g id="edge48" class="edge">
<title>node_6265c433&#45;&gt;node_29880eb3</title>
<path fill="none" stroke="#009e73" stroke-width="2" d="M513,-1379.25C686.25,-1379.25 1059.75,-1379.25 1059.75,-1379.25 1059.75,-1379.25 1059.75,-1380.1 1059.75,-1380.1"/>
<polygon fill="#009e73" stroke="#009e73" stroke-width="2" points="1056.25,-1374.77 1059.75,-1384.77 1063.25,-1374.77 1056.25,-1374.77"/>
</g>
<!-- node_6265c433&#45;&gt;node_f555a779 -->
<g id="edge51" class="edge">
<title>node_6265c433&#45;&gt;node_f555a779</title>
<path fill="none" stroke="#009e73" stroke-width="2" d="M513.03,-1362.25C513.03,-1362.25 638.39,-1362.25 638.39,-1362.25"/>
<polygon fill="#009e73" stroke="#009e73" stroke-width="2" points="638.39,-1365.75 648.39,-1362.25 638.39,-1358.75 638.39,-1365.75"/>
</g>
<!-- node_0597327b&#45;&gt;node_f555a779 -->
<g id="edge52" class="edge">
<title>node_0597327b&#45;&gt;node_f555a779</title>
<path fill="none" stroke="#009e73" stroke-width="2" d="M525.75,-1316.69C525.75,-1329.49 525.75,-1344.25 525.75,-1344.25 525.75,-1344.25 638.32,-1344.25 638.32,-1344.25"/>
<polygon fill="#009e73" stroke="#009e73" stroke-width="2" points="638.32,-1347.75 648.32,-1344.25 638.32,-1340.75 638.32,-1347.75"/>
</g>
<!-- node_bc502e0a -->
<g id="node36" class="node">
<title>node_bc502e0a</title>
<path fill="#6db33f" stroke="black" d="M1154.38,-1907.25C1154.38,-1907.25 964.38,-1907.25 964.38,-1907.25 958.38,-1907.25 952.38,-1901.25 952.38,-1895.25 952.38,-1895.25 952.38,-1883.25 952.38,-1883.25 952.38,-1877.25 958.38,-1871.25 964.38,-1871.25 964.38,-1871.25 1154.38,-1871.25 1154.38,-1871.25 1160.38,-1871.25 1166.38,-1877.25 1166.38,-1883.25 1166.38,-1883.25 1166.38,-1895.25 1166.38,-1895.25 1166.38,-1901.25 1160.38,-1907.25 1154.38,-1907.25"/>
<text xml:space="preserve" text-anchor="middle" x="1059.38" y="-1884.2" font-family="Times New Roman,serif" font-size="14.00">1309: _calculate_branch_gradients()</text>
</g>
<!-- node_da7e80a0 -->
<g id="node37" class="node">
<title>node_da7e80a0</title>
<path fill="#6db33f" stroke="black" d="M1191.88,-2015.25C1191.88,-2015.25 926.88,-2015.25 926.88,-2015.25 920.88,-2015.25 914.88,-2009.25 914.88,-2003.25 914.88,-2003.25 914.88,-1991.25 914.88,-1991.25 914.88,-1985.25 920.88,-1979.25 926.88,-1979.25 926.88,-1979.25 1191.88,-1979.25 1191.88,-1979.25 1197.88,-1979.25 1203.88,-1985.25 1203.88,-1991.25 1203.88,-1991.25 1203.88,-2003.25 1203.88,-2003.25 1203.88,-2009.25 1197.88,-2015.25 1191.88,-2015.25"/>
<text xml:space="preserve" text-anchor="middle" x="1059.38" y="-1992.2" font-family="Times New Roman,serif" font-size="14.00">1389: _calculate_branch_parents_from_skeleton()</text>
</g>
<!-- node_5e65bfdc -->
<g id="node38" class="node">
<title>node_5e65bfdc</title>
<path fill="#6db33f" stroke="black" d="M1148,-1961.25C1148,-1961.25 970.75,-1961.25 970.75,-1961.25 964.75,-1961.25 958.75,-1955.25 958.75,-1949.25 958.75,-1949.25 958.75,-1937.25 958.75,-1937.25 958.75,-1931.25 964.75,-1925.25 970.75,-1925.25 970.75,-1925.25 1148,-1925.25 1148,-1925.25 1154,-1925.25 1160,-1931.25 1160,-1937.25 1160,-1937.25 1160,-1949.25 1160,-1949.25 1160,-1955.25 1154,-1961.25 1148,-1961.25"/>
<text xml:space="preserve" text-anchor="middle" x="1059.38" y="-1938.2" font-family="Times New Roman,serif" font-size="14.00">1426: _calculate_bud_directions()</text>
</g>
<!-- node_bc0f794e -->
<g id="node39" class="node">
<title>node_bc0f794e</title>
<path fill="#6db33f" stroke="black" d="M1181.38,-1745.25C1181.38,-1745.25 937.38,-1745.25 937.38,-1745.25 931.38,-1745.25 925.38,-1739.25 925.38,-1733.25 925.38,-1733.25 925.38,-1721.25 925.38,-1721.25 925.38,-1715.25 931.38,-1709.25 937.38,-1709.25 937.38,-1709.25 1181.38,-1709.25 1181.38,-1709.25 1187.38,-1709.25 1193.38,-1715.25 1193.38,-1721.25 1193.38,-1721.25 1193.38,-1733.25 1193.38,-1733.25 1193.38,-1739.25 1187.38,-1745.25 1181.38,-1745.25"/>
<text xml:space="preserve" text-anchor="middle" x="1059.38" y="-1722.2" font-family="Times New Roman,serif" font-size="14.00">1215: _calculate_generation_from_polylines()</text>
</g>
<!-- node_928befdb -->
<g id="node40" class="node">
<title>node_928befdb</title>
<path fill="#6db33f" stroke="black" d="M1155.88,-1799.25C1155.88,-1799.25 962.88,-1799.25 962.88,-1799.25 956.88,-1799.25 950.88,-1793.25 950.88,-1787.25 950.88,-1787.25 950.88,-1775.25 950.88,-1775.25 950.88,-1769.25 956.88,-1763.25 962.88,-1763.25 962.88,-1763.25 1155.88,-1763.25 1155.88,-1763.25 1161.88,-1763.25 1167.88,-1769.25 1167.88,-1775.25 1167.88,-1775.25 1167.88,-1787.25 1167.88,-1787.25 1167.88,-1793.25 1161.88,-1799.25 1155.88,-1799.25"/>
<text xml:space="preserve" text-anchor="middle" x="1059.38" y="-1776.2" font-family="Times New Roman,serif" font-size="14.00">1265: _calculate_length_from_root()</text>
</g>
<!-- node_65e6ba2c -->
<g id="node41" class="node">
<title>node_65e6ba2c</title>
<path fill="#6db33f" stroke="black" d="M1144.62,-1853.25C1144.62,-1853.25 974.12,-1853.25 974.12,-1853.25 968.12,-1853.25 962.12,-1847.25 962.12,-1841.25 962.12,-1841.25 962.12,-1829.25 962.12,-1829.25 962.12,-1823.25 968.12,-1817.25 974.12,-1817.25 974.12,-1817.25 1144.62,-1817.25 1144.62,-1817.25 1150.62,-1817.25 1156.62,-1823.25 1156.62,-1829.25 1156.62,-1829.25 1156.62,-1841.25 1156.62,-1841.25 1156.62,-1847.25 1150.62,-1853.25 1144.62,-1853.25"/>
<text xml:space="preserve" text-anchor="middle" x="1059.38" y="-1830.2" font-family="Times New Roman,serif" font-size="14.00">1537: _calculate_lod_gradients()</text>
</g>
<!-- node_e4f6250b -->
<g id="node42" class="node">
<title>node_e4f6250b</title>
<path fill="#cccccc" stroke="black" d="M1191.88,-1691.25C1191.88,-1691.25 926.88,-1691.25 926.88,-1691.25 920.88,-1691.25 914.88,-1685.25 914.88,-1679.25 914.88,-1679.25 914.88,-1667.25 914.88,-1667.25 914.88,-1661.25 920.88,-1655.25 926.88,-1655.25 926.88,-1655.25 1191.88,-1655.25 1191.88,-1655.25 1197.88,-1655.25 1203.88,-1661.25 1203.88,-1667.25 1203.88,-1667.25 1203.88,-1679.25 1203.88,-1679.25 1203.88,-1685.25 1197.88,-1691.25 1191.88,-1691.25"/>
<text xml:space="preserve" text-anchor="middle" x="1059.38" y="-1668.2" font-family="Times New Roman,serif" font-size="14.00">307: _compute_global_metadata_from_skeleton()</text>
</g>
<!-- node_d5a48b9c -->
<g id="node52" class="node">
<title>node_d5a48b9c</title>
<path fill="#6db33f" stroke="black" d="M1430.25,-1691.25C1430.25,-1691.25 1263.5,-1691.25 1263.5,-1691.25 1257.5,-1691.25 1251.5,-1685.25 1251.5,-1679.25 1251.5,-1679.25 1251.5,-1667.25 1251.5,-1667.25 1251.5,-1661.25 1257.5,-1655.25 1263.5,-1655.25 1263.5,-1655.25 1430.25,-1655.25 1430.25,-1655.25 1436.25,-1655.25 1442.25,-1661.25 1442.25,-1667.25 1442.25,-1667.25 1442.25,-1679.25 1442.25,-1679.25 1442.25,-1685.25 1436.25,-1691.25 1430.25,-1691.25"/>
<text xml:space="preserve" text-anchor="middle" x="1346.88" y="-1668.2" font-family="Times New Roman,serif" font-size="14.00">643: _max_branch_generation()</text>
</g>
<!-- node_e4f6250b&#45;&gt;node_d5a48b9c -->
<g id="edge53" class="edge">
<title>node_e4f6250b&#45;&gt;node_d5a48b9c</title>
<path fill="none" stroke="#009e73" stroke-width="2" d="M1203.97,-1673.25C1203.97,-1673.25 1238.33,-1673.25 1238.33,-1673.25"/>
<polygon fill="#009e73" stroke="#009e73" stroke-width="2" points="1238.33,-1676.75 1248.33,-1673.25 1238.33,-1669.75 1238.33,-1676.75"/>
</g>
<!-- node_23a1d27b -->
<g id="node43" class="node">
<title>node_23a1d27b</title>
<path fill="#6db33f" stroke="black" d="M1429.12,-1583.25C1429.12,-1583.25 1264.62,-1583.25 1264.62,-1583.25 1258.62,-1583.25 1252.62,-1577.25 1252.62,-1571.25 1252.62,-1571.25 1252.62,-1559.25 1252.62,-1559.25 1252.62,-1553.25 1258.62,-1547.25 1264.62,-1547.25 1264.62,-1547.25 1429.12,-1547.25 1429.12,-1547.25 1435.12,-1547.25 1441.12,-1553.25 1441.12,-1559.25 1441.12,-1559.25 1441.12,-1571.25 1441.12,-1571.25 1441.12,-1577.25 1435.12,-1583.25 1429.12,-1583.25"/>
<text xml:space="preserve" text-anchor="middle" x="1346.88" y="-1560.2" font-family="Times New Roman,serif" font-size="14.00">476: _compute_plant_profiles()</text>
</g>
<!-- node_87f954bc -->
<g id="node44" class="node">
<title>node_87f954bc</title>
<path fill="#cccccc" stroke="black" d="M1196,-1583.25C1196,-1583.25 922.75,-1583.25 922.75,-1583.25 916.75,-1583.25 910.75,-1577.25 910.75,-1571.25 910.75,-1571.25 910.75,-1559.25 910.75,-1559.25 910.75,-1553.25 916.75,-1547.25 922.75,-1547.25 922.75,-1547.25 1196,-1547.25 1196,-1547.25 1202,-1547.25 1208,-1553.25 1208,-1559.25 1208,-1559.25 1208,-1571.25 1208,-1571.25 1208,-1577.25 1202,-1583.25 1196,-1583.25"/>
<text xml:space="preserve" text-anchor="middle" x="1059.38" y="-1560.2" font-family="Times New Roman,serif" font-size="14.00">370: _compute_skeleton_derived_growth_params()</text>
</g>
<!-- node_87f954bc&#45;&gt;node_23a1d27b -->
<g id="edge54" class="edge">
<title>node_87f954bc&#45;&gt;node_23a1d27b</title>
<path fill="none" stroke="#f0e442" stroke-width="2" d="M1208.18,-1565.25C1208.18,-1565.25 1239.48,-1565.25 1239.48,-1565.25"/>
<polygon fill="#f0e442" stroke="#f0e442" stroke-width="2" points="1239.48,-1568.75 1249.48,-1565.25 1239.48,-1561.75 1239.48,-1568.75"/>
</g>
<!-- node_12061265 -->
<g id="node45" class="node">
<title>node_12061265</title>
<path fill="#6db33f" stroke="black" d="M830.88,-1583.25C830.88,-1583.25 631.12,-1583.25 631.12,-1583.25 625.12,-1583.25 619.12,-1577.25 619.12,-1571.25 619.12,-1571.25 619.12,-1559.25 619.12,-1559.25 619.12,-1553.25 625.12,-1547.25 631.12,-1547.25 631.12,-1547.25 830.88,-1547.25 830.88,-1547.25 836.88,-1547.25 842.88,-1553.25 842.88,-1559.25 842.88,-1559.25 842.88,-1571.25 842.88,-1571.25 842.88,-1577.25 836.88,-1583.25 830.88,-1583.25"/>
<text xml:space="preserve" text-anchor="middle" x="731" y="-1560.2" font-family="Times New Roman,serif" font-size="14.00">53: _create_empty_global_attributes()</text>
</g>
<!-- node_eb9686f2 -->
<g id="node46" class="node">
<title>node_eb9686f2</title>
<path fill="#6db33f" stroke="black" d="M827.88,-1637.25C827.88,-1637.25 634.12,-1637.25 634.12,-1637.25 628.12,-1637.25 622.12,-1631.25 622.12,-1625.25 622.12,-1625.25 622.12,-1613.25 622.12,-1613.25 622.12,-1607.25 628.12,-1601.25 634.12,-1601.25 634.12,-1601.25 827.88,-1601.25 827.88,-1601.25 833.88,-1601.25 839.88,-1607.25 839.88,-1613.25 839.88,-1613.25 839.88,-1625.25 839.88,-1625.25 839.88,-1631.25 833.88,-1637.25 827.88,-1637.25"/>
<text xml:space="preserve" text-anchor="middle" x="731" y="-1614.2" font-family="Times New Roman,serif" font-size="14.00">66: _create_empty_point_attributes()</text>
</g>
<!-- node_1b64c651 -->
<g id="node47" class="node">
<title>node_1b64c651</title>
<path fill="#6db33f" stroke="black" d="M839.12,-1691.25C839.12,-1691.25 622.88,-1691.25 622.88,-1691.25 616.88,-1691.25 610.88,-1685.25 610.88,-1679.25 610.88,-1679.25 610.88,-1667.25 610.88,-1667.25 610.88,-1661.25 616.88,-1655.25 622.88,-1655.25 622.88,-1655.25 839.12,-1655.25 839.12,-1655.25 845.12,-1655.25 851.12,-1661.25 851.12,-1667.25 851.12,-1667.25 851.12,-1679.25 851.12,-1679.25 851.12,-1685.25 845.12,-1691.25 839.12,-1691.25"/>
<text xml:space="preserve" text-anchor="middle" x="731" y="-1668.2" font-family="Times New Roman,serif" font-size="14.00">81: _create_empty_primitive_attributes()</text>
</g>
<!-- node_3704d926 -->
<g id="node48" class="node">
<title>node_3704d926</title>
<path fill="#6db33f" stroke="black" d="M1437.75,-1637.25C1437.75,-1637.25 1256,-1637.25 1256,-1637.25 1250,-1637.25 1244,-1631.25 1244,-1625.25 1244,-1625.25 1244,-1613.25 1244,-1613.25 1244,-1607.25 1250,-1601.25 1256,-1601.25 1256,-1601.25 1437.75,-1601.25 1437.75,-1601.25 1443.75,-1601.25 1449.75,-1607.25 1449.75,-1613.25 1449.75,-1613.25 1449.75,-1625.25 1449.75,-1625.25 1449.75,-1631.25 1443.75,-1637.25 1437.75,-1637.25"/>
<text xml:space="preserve" text-anchor="middle" x="1346.88" y="-1614.2" font-family="Times New Roman,serif" font-size="14.00">626: _load_species_seed_params()</text>
</g>
<!-- node_f8a819c8 -->
<g id="node49" class="node">
<title>node_f8a819c8</title>
<path fill="#cccccc" stroke="black" d="M809.5,-1745.25C809.5,-1745.25 652.5,-1745.25 652.5,-1745.25 646.5,-1745.25 640.5,-1739.25 640.5,-1733.25 640.5,-1733.25 640.5,-1721.25 640.5,-1721.25 640.5,-1715.25 646.5,-1709.25 652.5,-1709.25 652.5,-1709.25 809.5,-1709.25 809.5,-1709.25 815.5,-1709.25 821.5,-1715.25 821.5,-1721.25 821.5,-1721.25 821.5,-1733.25 821.5,-1733.25 821.5,-1739.25 815.5,-1745.25 809.5,-1745.25"/>
<text xml:space="preserve" text-anchor="middle" x="731" y="-1722.2" font-family="Times New Roman,serif" font-size="14.00">234: _map_global_attributes()</text>
</g>
<!-- node_f8a819c8&#45;&gt;node_e4f6250b -->
<g id="edge55" class="edge">
<title>node_f8a819c8&#45;&gt;node_e4f6250b</title>
<path fill="none" stroke="#000000" stroke-width="2" d="M821.85,-1736.25C869.77,-1736.25 918.75,-1736.25 918.75,-1736.25 918.75,-1736.25 918.75,-1704.5 918.75,-1704.5"/>
<polygon fill="#000000" stroke="#000000" stroke-width="2" points="922.25,-1704.5 918.75,-1694.5 915.25,-1704.5 922.25,-1704.5"/>
</g>
<!-- node_f8a819c8&#45;&gt;node_87f954bc -->
<g id="edge56" class="edge">
<title>node_f8a819c8&#45;&gt;node_87f954bc</title>
<path fill="none" stroke="#000000" stroke-width="2" d="M821.99,-1718.25C841.18,-1718.25 855.75,-1718.25 855.75,-1718.25 855.75,-1718.25 855.75,-1565.25 855.75,-1565.25 855.75,-1565.25 897.29,-1565.25 897.29,-1565.25"/>
<polygon fill="#000000" stroke="#000000" stroke-width="2" points="897.29,-1568.75 907.29,-1565.25 897.29,-1561.75 897.29,-1568.75"/>
</g>
<!-- node_9e83768f -->
<g id="node53" class="node">
<title>node_9e83768f</title>
<path fill="#cccccc" stroke="black" d="M1169.38,-1637.25C1169.38,-1637.25 949.38,-1637.25 949.38,-1637.25 943.38,-1637.25 937.38,-1631.25 937.38,-1625.25 937.38,-1625.25 937.38,-1613.25 937.38,-1613.25 937.38,-1607.25 943.38,-1601.25 949.38,-1601.25 949.38,-1601.25 1169.38,-1601.25 1169.38,-1601.25 1175.38,-1601.25 1181.38,-1607.25 1181.38,-1613.25 1181.38,-1613.25 1181.38,-1625.25 1181.38,-1625.25 1181.38,-1631.25 1175.38,-1637.25 1169.38,-1637.25"/>
<text xml:space="preserve" text-anchor="middle" x="1059.38" y="-1614.2" font-family="Times New Roman,serif" font-size="14.00">571: _scale_growth_params_by_species()</text>
</g>
<!-- node_f8a819c8&#45;&gt;node_9e83768f -->
<g id="edge57" class="edge">
<title>node_f8a819c8&#45;&gt;node_9e83768f</title>
<path fill="none" stroke="#000000" stroke-width="2" d="M821.63,-1727.25C846,-1727.25 865.75,-1727.25 865.75,-1727.25 865.75,-1727.25 865.75,-1619.25 865.75,-1619.25 865.75,-1619.25 924,-1619.25 924,-1619.25"/>
<polygon fill="#000000" stroke="#000000" stroke-width="2" points="924,-1622.75 934,-1619.25 924,-1615.75 924,-1622.75"/>
</g>
<!-- node_52dab2ee -->
<g id="node50" class="node">
<title>node_52dab2ee</title>
<path fill="#cccccc" stroke="black" d="M823.38,-1826.25C823.38,-1826.25 638.62,-1826.25 638.62,-1826.25 632.62,-1826.25 626.62,-1820.25 626.62,-1814.25 626.62,-1814.25 626.62,-1802.25 626.62,-1802.25 626.62,-1796.25 632.62,-1790.25 638.62,-1790.25 638.62,-1790.25 823.38,-1790.25 823.38,-1790.25 829.38,-1790.25 835.38,-1796.25 835.38,-1802.25 835.38,-1802.25 835.38,-1814.25 835.38,-1814.25 835.38,-1820.25 829.38,-1826.25 823.38,-1826.25"/>
<text xml:space="preserve" text-anchor="middle" x="731" y="-1803.2" font-family="Times New Roman,serif" font-size="14.00">671: _map_points_from_skeleton()</text>
</g>
<!-- node_52dab2ee&#45;&gt;node_bc502e0a -->
<g id="edge58" class="edge">
<title>node_52dab2ee&#45;&gt;node_bc502e0a</title>
<path fill="none" stroke="#d55e00" stroke-width="2" d="M835.61,-1821.75C894.67,-1821.75 956.75,-1821.75 956.75,-1821.75 956.75,-1821.75 956.75,-1857.78 956.75,-1857.78"/>
<polygon fill="#d55e00" stroke="#d55e00" stroke-width="2" points="953.25,-1857.78 956.75,-1867.78 960.25,-1857.78 953.25,-1857.78"/>
</g>
<!-- node_52dab2ee&#45;&gt;node_5e65bfdc -->
<g id="edge59" class="edge">
<title>node_52dab2ee&#45;&gt;node_5e65bfdc</title>
<path fill="none" stroke="#d55e00" stroke-width="2" d="M835.73,-1824C850.49,-1824 860.75,-1824 860.75,-1824 860.75,-1824 860.75,-1937.25 860.75,-1937.25 860.75,-1937.25 945.29,-1937.25 945.29,-1937.25"/>
<polygon fill="#d55e00" stroke="#d55e00" stroke-width="2" points="945.29,-1940.75 955.29,-1937.25 945.29,-1933.75 945.29,-1940.75"/>
</g>
<!-- node_52dab2ee&#45;&gt;node_bc0f794e -->
<g id="edge60" class="edge">
<title>node_52dab2ee&#45;&gt;node_bc0f794e</title>
<path fill="none" stroke="#d55e00" stroke-width="2" d="M835.59,-1793.25C886.87,-1793.25 937.75,-1793.25 937.75,-1793.25 937.75,-1793.25 937.75,-1758.66 937.75,-1758.66"/>
<polygon fill="#d55e00" stroke="#d55e00" stroke-width="2" points="941.25,-1758.66 937.75,-1748.66 934.25,-1758.66 941.25,-1758.66"/>
</g>
<!-- node_52dab2ee&#45;&gt;node_928befdb -->
<g id="edge61" class="edge">
<title>node_52dab2ee&#45;&gt;node_928befdb</title>
<path fill="none" stroke="#d55e00" stroke-width="2" d="M835.8,-1796.25C835.8,-1796.25 937.45,-1796.25 937.45,-1796.25"/>
<polygon fill="#d55e00" stroke="#d55e00" stroke-width="2" points="937.45,-1799.75 947.45,-1796.25 937.45,-1792.75 937.45,-1799.75"/>
</g>
<!-- node_52dab2ee&#45;&gt;node_65e6ba2c -->
<g id="edge62" class="edge">
<title>node_52dab2ee&#45;&gt;node_65e6ba2c</title>
<path fill="none" stroke="#d55e00" stroke-width="2" d="M835.8,-1819.5C835.8,-1819.5 948.67,-1819.5 948.67,-1819.5"/>
<polygon fill="#d55e00" stroke="#d55e00" stroke-width="2" points="948.67,-1823 958.67,-1819.5 948.67,-1816 948.67,-1823"/>
</g>
<!-- node_cea814c6 -->
<g id="node51" class="node">
<title>node_cea814c6</title>
<path fill="#cccccc" stroke="black" d="M834.62,-1961.25C834.62,-1961.25 627.38,-1961.25 627.38,-1961.25 621.38,-1961.25 615.38,-1955.25 615.38,-1949.25 615.38,-1949.25 615.38,-1937.25 615.38,-1937.25 615.38,-1931.25 621.38,-1925.25 627.38,-1925.25 627.38,-1925.25 834.62,-1925.25 834.62,-1925.25 840.62,-1925.25 846.62,-1931.25 846.62,-1937.25 846.62,-1937.25 846.62,-1949.25 846.62,-1949.25 846.62,-1955.25 840.62,-1961.25 834.62,-1961.25"/>
<text xml:space="preserve" text-anchor="middle" x="731" y="-1938.2" font-family="Times New Roman,serif" font-size="14.00">939: _map_primitives_from_skeleton()</text>
</g>
<!-- node_cea814c6&#45;&gt;node_da7e80a0 -->
<g id="edge63" class="edge">
<title>node_cea814c6&#45;&gt;node_da7e80a0</title>
<path fill="none" stroke="#d55e00" stroke-width="2" d="M846.91,-1949.25C886.85,-1949.25 921.75,-1949.25 921.75,-1949.25 921.75,-1949.25 921.75,-1965.8 921.75,-1965.8"/>
<polygon fill="#d55e00" stroke="#d55e00" stroke-width="2" points="918.25,-1965.8 921.75,-1975.8 925.25,-1965.8 918.25,-1965.8"/>
</g>
<!-- node_9e83768f&#45;&gt;node_3704d926 -->
<g id="edge64" class="edge">
<title>node_9e83768f&#45;&gt;node_3704d926</title>
<path fill="none" stroke="#cc79a7" stroke-width="2" d="M1181.72,-1619.25C1181.72,-1619.25 1230.64,-1619.25 1230.64,-1619.25"/>
<polygon fill="#cc79a7" stroke="#cc79a7" stroke-width="2" points="1230.64,-1622.75 1240.64,-1619.25 1230.64,-1615.75 1230.64,-1622.75"/>
</g>
<!-- node_adddf803 -->
<g id="node54" class="node">
<title>node_adddf803</title>
<path fill="#cccccc" stroke="black" d="M539.25,-1664.25C539.25,-1664.25 314,-1664.25 314,-1664.25 308,-1664.25 302,-1658.25 302,-1652.25 302,-1652.25 302,-1640.25 302,-1640.25 302,-1634.25 308,-1628.25 314,-1628.25 314,-1628.25 539.25,-1628.25 539.25,-1628.25 545.25,-1628.25 551.25,-1634.25 551.25,-1640.25 551.25,-1640.25 551.25,-1652.25 551.25,-1652.25 551.25,-1658.25 545.25,-1664.25 539.25,-1664.25"/>
<text xml:space="preserve" text-anchor="middle" x="426.62" y="-1641.2" font-family="Times New Roman,serif" font-size="14.00">23: create_pve_template_from_reference()</text>
</g>
<!-- node_adddf803&#45;&gt;node_12061265 -->
<g id="edge65" class="edge">
<title>node_adddf803&#45;&gt;node_12061265</title>
<path fill="none" stroke="#009e73" stroke-width="2" d="M546.75,-1627.87C546.75,-1603.97 546.75,-1565.25 546.75,-1565.25 546.75,-1565.25 605.75,-1565.25 605.75,-1565.25"/>
<polygon fill="#009e73" stroke="#009e73" stroke-width="2" points="605.75,-1568.75 615.75,-1565.25 605.75,-1561.75 605.75,-1568.75"/>
</g>
<!-- node_adddf803&#45;&gt;node_eb9686f2 -->
<g id="edge66" class="edge">
<title>node_adddf803&#45;&gt;node_eb9686f2</title>
<path fill="none" stroke="#009e73" stroke-width="2" d="M551.74,-1632.75C551.74,-1632.75 608.91,-1632.75 608.91,-1632.75"/>
<polygon fill="#009e73" stroke="#009e73" stroke-width="2" points="608.91,-1636.25 618.91,-1632.75 608.91,-1629.25 608.91,-1636.25"/>
</g>
<!-- node_adddf803&#45;&gt;node_1b64c651 -->
<g id="edge67" class="edge">
<title>node_adddf803&#45;&gt;node_1b64c651</title>
<path fill="none" stroke="#009e73" stroke-width="2" d="M551.74,-1659.75C551.74,-1659.75 597.75,-1659.75 597.75,-1659.75"/>
<polygon fill="#009e73" stroke="#009e73" stroke-width="2" points="597.75,-1663.25 607.75,-1659.75 597.75,-1656.25 597.75,-1663.25"/>
</g>
<!-- node_7165b1ca -->
<g id="node55" class="node">
<title>node_7165b1ca</title>
<path fill="#966f33" stroke="black" d="M222.38,-1724.25C222.38,-1724.25 43.62,-1724.25 43.62,-1724.25 37.62,-1724.25 31.62,-1718.25 31.62,-1712.25 31.62,-1712.25 31.62,-1700.25 31.62,-1700.25 31.62,-1694.25 37.62,-1688.25 43.62,-1688.25 43.62,-1688.25 222.38,-1688.25 222.38,-1688.25 228.38,-1688.25 234.38,-1694.25 234.38,-1700.25 234.38,-1700.25 234.38,-1712.25 234.38,-1712.25 234.38,-1718.25 228.38,-1724.25 222.38,-1724.25"/>
<text xml:space="preserve" text-anchor="middle" x="133" y="-1701.2" font-family="Times New Roman,serif" font-size="14.00">1620: generate_pve_from_grove()</text>
</g>
<!-- node_7165b1ca&#45;&gt;node_adddf803 -->
<g id="edge68" class="edge">
<title>node_7165b1ca&#45;&gt;node_adddf803</title>
<path fill="none" stroke="#56b4e9" stroke-width="2" d="M234.73,-1700.25C275.83,-1700.25 313.75,-1700.25 313.75,-1700.25 313.75,-1700.25 313.75,-1677.56 313.75,-1677.56"/>
<polygon fill="#56b4e9" stroke="#56b4e9" stroke-width="2" points="317.25,-1677.56 313.75,-1667.56 310.25,-1677.56 317.25,-1677.56"/>
</g>
<!-- node_31712364 -->
<g id="node56" class="node">
<title>node_31712364</title>
<path fill="#cccccc" stroke="black" d="M490.12,-1785.25C490.12,-1785.25 363.12,-1785.25 363.12,-1785.25 357.12,-1785.25 351.12,-1779.25 351.12,-1773.25 351.12,-1773.25 351.12,-1761.25 351.12,-1761.25 351.12,-1755.25 357.12,-1749.25 363.12,-1749.25 363.12,-1749.25 490.12,-1749.25 490.12,-1749.25 496.12,-1749.25 502.12,-1755.25 502.12,-1761.25 502.12,-1761.25 502.12,-1773.25 502.12,-1773.25 502.12,-1779.25 496.12,-1785.25 490.12,-1785.25"/>
<text xml:space="preserve" text-anchor="middle" x="426.62" y="-1762.2" font-family="Times New Roman,serif" font-size="14.00">96: map_grove_to_pve()</text>
</g>
<!-- node_7165b1ca&#45;&gt;node_31712364 -->
<g id="edge69" class="edge">
<title>node_7165b1ca&#45;&gt;node_31712364</title>
<path fill="none" stroke="#56b4e9" stroke-width="2" d="M234.6,-1716.75C310.71,-1716.75 401.75,-1716.75 401.75,-1716.75 401.75,-1716.75 401.75,-1735.99 401.75,-1735.99"/>
<polygon fill="#56b4e9" stroke="#56b4e9" stroke-width="2" points="398.25,-1735.99 401.75,-1745.99 405.25,-1735.99 398.25,-1735.99"/>
</g>
<!-- node_31712364&#45;&gt;node_f8a819c8 -->
<g id="edge70" class="edge">
<title>node_31712364&#45;&gt;node_f8a819c8</title>
<path fill="none" stroke="#f0e442" stroke-width="2" d="M451.75,-1749.1C451.75,-1741.66 451.75,-1734.75 451.75,-1734.75 451.75,-1734.75 627.31,-1734.75 627.31,-1734.75"/>
<polygon fill="#f0e442" stroke="#f0e442" stroke-width="2" points="627.31,-1738.25 637.31,-1734.75 627.31,-1731.25 627.31,-1738.25"/>
</g>
<!-- node_31712364&#45;&gt;node_52dab2ee -->
<g id="edge71" class="edge">
<title>node_31712364&#45;&gt;node_52dab2ee</title>
<path fill="none" stroke="#f0e442" stroke-width="2" d="M502.57,-1770.58C561.69,-1770.58 633.75,-1770.58 633.75,-1770.58 633.75,-1770.58 633.75,-1776.83 633.75,-1776.83"/>
<polygon fill="#f0e442" stroke="#f0e442" stroke-width="2" points="630.25,-1776.83 633.75,-1786.83 637.25,-1776.83 630.25,-1776.83"/>
</g>
<!-- node_31712364&#45;&gt;node_cea814c6 -->
<g id="edge72" class="edge">
<title>node_31712364&#45;&gt;node_cea814c6</title>
<path fill="none" stroke="#f0e442" stroke-width="2" d="M502.51,-1777.92C556.96,-1777.92 620.75,-1777.92 620.75,-1777.92 620.75,-1777.92 620.75,-1911.9 620.75,-1911.9"/>
<polygon fill="#f0e442" stroke="#f0e442" stroke-width="2" points="617.25,-1911.9 620.75,-1921.9 624.25,-1911.9 617.25,-1911.9"/>
</g>
<!-- node_b1c2f09b -->
<g id="node57" class="node">
<title>node_b1c2f09b</title>
<path fill="#966f33" stroke="black" d="M529.88,-359.25C529.88,-359.25 323.38,-359.25 323.38,-359.25 317.38,-359.25 311.38,-353.25 311.38,-347.25 311.38,-347.25 311.38,-335.25 311.38,-335.25 311.38,-329.25 317.38,-323.25 323.38,-323.25 323.38,-323.25 529.88,-323.25 529.88,-323.25 535.88,-323.25 541.88,-329.25 541.88,-335.25 541.88,-335.25 541.88,-347.25 541.88,-347.25 541.88,-353.25 535.88,-359.25 529.88,-359.25"/>
<text xml:space="preserve" text-anchor="middle" x="426.62" y="-336.2" font-family="Times New Roman,serif" font-size="14.00">1161: _add_dynamic_wind_attributes()</text>
</g>
<!-- node_c8946d06 -->
<g id="node73" class="node">
<title>node_c8946d06</title>
<path fill="#cccccc" stroke="black" d="M785.12,-274.25C785.12,-274.25 676.88,-274.25 676.88,-274.25 670.88,-274.25 664.88,-268.25 664.88,-262.25 664.88,-262.25 664.88,-250.25 664.88,-250.25 664.88,-244.25 670.88,-238.25 676.88,-238.25 676.88,-238.25 785.12,-238.25 785.12,-238.25 791.12,-238.25 797.12,-244.25 797.12,-250.25 797.12,-250.25 797.12,-262.25 797.12,-262.25 797.12,-268.25 791.12,-274.25 785.12,-274.25"/>
<text xml:space="preserve" text-anchor="middle" x="731" y="-251.2" font-family="Times New Roman,serif" font-size="14.00">197: _classify_joint()</text>
</g>
<!-- node_b1c2f09b&#45;&gt;node_c8946d06 -->
<g id="edge73" class="edge">
<title>node_b1c2f09b&#45;&gt;node_c8946d06</title>
<path fill="none" stroke="#009e73" stroke-width="2" d="M522.75,-322.93C522.75,-299.59 522.75,-262.25 522.75,-262.25 522.75,-262.25 651.51,-262.25 651.51,-262.25"/>
<polygon fill="#009e73" stroke="#009e73" stroke-width="2" points="651.51,-265.75 661.51,-262.25 651.51,-258.75 651.51,-265.75"/>
</g>
<!-- node_f361e6ef -->
<g id="node75" class="node">
<title>node_f361e6ef</title>
<path fill="#6db33f" stroke="black" d="M843.62,-220.25C843.62,-220.25 618.38,-220.25 618.38,-220.25 612.38,-220.25 606.38,-214.25 606.38,-208.25 606.38,-208.25 606.38,-196.25 606.38,-196.25 606.38,-190.25 612.38,-184.25 618.38,-184.25 618.38,-184.25 843.62,-184.25 843.62,-184.25 849.62,-184.25 855.62,-190.25 855.62,-196.25 855.62,-196.25 855.62,-208.25 855.62,-208.25 855.62,-214.25 849.62,-220.25 843.62,-220.25"/>
<text xml:space="preserve" text-anchor="middle" x="731" y="-197.2" font-family="Times New Roman,serif" font-size="14.00">323: _extract_skeleton_attrs_from_grove()</text>
</g>
<!-- node_b1c2f09b&#45;&gt;node_f361e6ef -->
<g id="edge74" class="edge">
<title>node_b1c2f09b&#45;&gt;node_f361e6ef</title>
<path fill="none" stroke="#009e73" stroke-width="2" d="M542.27,-335.25C582.95,-335.25 618.75,-335.25 618.75,-335.25 618.75,-335.25 618.75,-233.77 618.75,-233.77"/>
<polygon fill="#009e73" stroke="#009e73" stroke-width="2" points="622.25,-233.77 618.75,-223.77 615.25,-233.77 622.25,-233.77"/>
</g>
<!-- node_c77745c8 -->
<g id="node58" class="node">
<title>node_c77745c8</title>
<path fill="#6db33f" stroke="black" d="M805.38,-467.25C805.38,-467.25 656.62,-467.25 656.62,-467.25 650.62,-467.25 644.62,-461.25 644.62,-455.25 644.62,-455.25 644.62,-443.25 644.62,-443.25 644.62,-437.25 650.62,-431.25 656.62,-431.25 656.62,-431.25 805.38,-431.25 805.38,-431.25 811.38,-431.25 817.38,-437.25 817.38,-443.25 817.38,-443.25 817.38,-455.25 817.38,-455.25 817.38,-461.25 811.38,-467.25 805.38,-467.25"/>
<text xml:space="preserve" text-anchor="middle" x="731" y="-444.2" font-family="Times New Roman,serif" font-size="14.00">1110: _add_mesh_normals()</text>
</g>
<!-- node_1bc1e75d -->
<g id="node59" class="node">
<title>node_1bc1e75d</title>
<path fill="#6db33f" stroke="black" d="M807.62,-521.25C807.62,-521.25 654.38,-521.25 654.38,-521.25 648.38,-521.25 642.38,-515.25 642.38,-509.25 642.38,-509.25 642.38,-497.25 642.38,-497.25 642.38,-491.25 648.38,-485.25 654.38,-485.25 654.38,-485.25 807.62,-485.25 807.62,-485.25 813.62,-485.25 819.62,-491.25 819.62,-497.25 819.62,-497.25 819.62,-509.25 819.62,-509.25 819.62,-515.25 813.62,-521.25 807.62,-521.25"/>
<text xml:space="preserve" text-anchor="middle" x="731" y="-498.2" font-family="Times New Roman,serif" font-size="14.00">647: _add_model_attributes()</text>
</g>
<!-- node_e7e6ce72 -->
<g id="node60" class="node">
<title>node_e7e6ce72</title>
<path fill="#6db33f" stroke="black" d="M811,-359.25C811,-359.25 651,-359.25 651,-359.25 645,-359.25 639,-353.25 639,-347.25 639,-347.25 639,-335.25 639,-335.25 639,-329.25 645,-323.25 651,-323.25 651,-323.25 811,-323.25 811,-323.25 817,-323.25 823,-329.25 823,-335.25 823,-335.25 823,-347.25 823,-347.25 823,-353.25 817,-359.25 811,-359.25"/>
<text xml:space="preserve" text-anchor="middle" x="731" y="-336.2" font-family="Times New Roman,serif" font-size="14.00">792: _add_skeletal_materials()</text>
</g>
<!-- node_2771485d -->
<g id="node61" class="node">
<title>node_2771485d</title>
<path fill="#cccccc" stroke="black" d="M829,-413.25C829,-413.25 633,-413.25 633,-413.25 627,-413.25 621,-407.25 621,-401.25 621,-401.25 621,-389.25 621,-389.25 621,-383.25 627,-377.25 633,-377.25 633,-377.25 829,-377.25 829,-377.25 835,-377.25 841,-383.25 841,-389.25 841,-389.25 841,-401.25 841,-401.25 841,-407.25 835,-413.25 829,-413.25"/>
<text xml:space="preserve" text-anchor="middle" x="731" y="-390.2" font-family="Times New Roman,serif" font-size="14.00">559: _add_skeleton_to_stage_inline()</text>
</g>
<!-- node_75e6b2e3 -->
<g id="node62" class="node">
<title>node_75e6b2e3</title>
<path fill="#6db33f" stroke="black" d="M1154,-413.25C1154,-413.25 964.75,-413.25 964.75,-413.25 958.75,-413.25 952.75,-407.25 952.75,-401.25 952.75,-401.25 952.75,-389.25 952.75,-389.25 952.75,-383.25 958.75,-377.25 964.75,-377.25 964.75,-377.25 1154,-377.25 1154,-377.25 1160,-377.25 1166,-383.25 1166,-389.25 1166,-389.25 1166,-401.25 1166,-401.25 1166,-407.25 1160,-413.25 1154,-413.25"/>
<text xml:space="preserve" text-anchor="middle" x="1059.38" y="-390.2" font-family="Times New Roman,serif" font-size="14.00">1262: _build_usdskel_from_bones()</text>
</g>
<!-- node_2771485d&#45;&gt;node_75e6b2e3 -->
<g id="edge75" class="edge">
<title>node_2771485d&#45;&gt;node_75e6b2e3</title>
<path fill="none" stroke="#0072b2" stroke-width="2" d="M841.26,-395.25C841.26,-395.25 939.44,-395.25 939.44,-395.25"/>
<polygon fill="#0072b2" stroke="#0072b2" stroke-width="2" points="939.44,-398.75 949.44,-395.25 939.44,-391.75 939.44,-398.75"/>
</g>
<!-- node_58b2c99a -->
<g id="node63" class="node">
<title>node_58b2c99a</title>
<path fill="#6db33f" stroke="black" d="M805,-575.25C805,-575.25 657,-575.25 657,-575.25 651,-575.25 645,-569.25 645,-563.25 645,-563.25 645,-551.25 645,-551.25 645,-545.25 651,-539.25 657,-539.25 657,-539.25 805,-539.25 805,-539.25 811,-539.25 817,-545.25 817,-551.25 817,-551.25 817,-563.25 817,-563.25 817,-569.25 811,-575.25 805,-575.25"/>
<text xml:space="preserve" text-anchor="middle" x="731" y="-552.2" font-family="Times New Roman,serif" font-size="14.00">543: _remove_api_schema()</text>
</g>
<!-- node_ddee9483&#45;&gt;node_c77745c8 -->
<g id="edge76" class="edge">
<title>node_ddee9483&#45;&gt;node_c77745c8</title>
<path fill="none" stroke="#009e73" stroke-width="2" d="M495.31,-452.85C495.31,-452.85 631.27,-452.85 631.27,-452.85"/>
<polygon fill="#009e73" stroke="#009e73" stroke-width="2" points="631.27,-456.35 641.27,-452.85 631.27,-449.35 631.27,-456.35"/>
</g>
<!-- node_ddee9483&#45;&gt;node_1bc1e75d -->
<g id="edge77" class="edge">
<title>node_ddee9483&#45;&gt;node_1bc1e75d</title>
<path fill="none" stroke="#009e73" stroke-width="2" d="M495.23,-460.05C521.71,-460.05 545.75,-460.05 545.75,-460.05 545.75,-460.05 545.75,-503.25 545.75,-503.25 545.75,-503.25 628.87,-503.25 628.87,-503.25"/>
<polygon fill="#009e73" stroke="#009e73" stroke-width="2" points="628.87,-506.75 638.87,-503.25 628.87,-499.75 628.87,-506.75"/>
</g>
<!-- node_ddee9483&#45;&gt;node_e7e6ce72 -->
<g id="edge78" class="edge">
<title>node_ddee9483&#45;&gt;node_e7e6ce72</title>
<path fill="none" stroke="#009e73" stroke-width="2" d="M495.33,-438.45C542.55,-438.45 596.75,-438.45 596.75,-438.45 596.75,-438.45 596.75,-347.25 596.75,-347.25 596.75,-347.25 625.83,-347.25 625.83,-347.25"/>
<polygon fill="#009e73" stroke="#009e73" stroke-width="2" points="625.83,-350.75 635.83,-347.25 625.83,-343.75 625.83,-350.75"/>
</g>
<!-- node_ddee9483&#45;&gt;node_2771485d -->
<g id="edge79" class="edge">
<title>node_ddee9483&#45;&gt;node_2771485d</title>
<path fill="none" stroke="#009e73" stroke-width="2" d="M495.5,-445.65C555.09,-445.65 631.75,-445.65 631.75,-445.65 631.75,-445.65 631.75,-426.76 631.75,-426.76"/>
<polygon fill="#009e73" stroke="#009e73" stroke-width="2" points="635.25,-426.76 631.75,-416.76 628.25,-426.76 635.25,-426.76"/>
</g>
<!-- node_495d99e0 -->
<g id="node66" class="node">
<title>node_495d99e0</title>
<path fill="#966f33" stroke="black" d="M508.5,-575.25C508.5,-575.25 344.75,-575.25 344.75,-575.25 338.75,-575.25 332.75,-569.25 332.75,-563.25 332.75,-563.25 332.75,-551.25 332.75,-551.25 332.75,-545.25 338.75,-539.25 344.75,-539.25 344.75,-539.25 508.5,-539.25 508.5,-539.25 514.5,-539.25 520.5,-545.25 520.5,-551.25 520.5,-551.25 520.5,-563.25 520.5,-563.25 520.5,-569.25 514.5,-575.25 508.5,-575.25"/>
<text xml:space="preserve" text-anchor="middle" x="426.62" y="-552.2" font-family="Times New Roman,serif" font-size="14.00">485: strip_skeleton_from_usd()</text>
</g>
<!-- node_495d99e0&#45;&gt;node_58b2c99a -->
<g id="edge80" class="edge">
<title>node_495d99e0&#45;&gt;node_58b2c99a</title>
<path fill="none" stroke="#000000" stroke-width="2" d="M520.85,-557.25C520.85,-557.25 631.7,-557.25 631.7,-557.25"/>
<polygon fill="#000000" stroke="#000000" stroke-width="2" points="631.7,-560.75 641.7,-557.25 631.7,-553.75 631.7,-560.75"/>
</g>
<!-- node_1b78497e -->
<g id="node67" class="node">
<title>node_1b78497e</title>
<path fill="#6db33f" stroke="black" d="M516.38,-2100.25C516.38,-2100.25 336.88,-2100.25 336.88,-2100.25 330.88,-2100.25 324.88,-2094.25 324.88,-2088.25 324.88,-2088.25 324.88,-2076.25 324.88,-2076.25 324.88,-2070.25 330.88,-2064.25 336.88,-2064.25 336.88,-2064.25 516.38,-2064.25 516.38,-2064.25 522.38,-2064.25 528.38,-2070.25 528.38,-2076.25 528.38,-2076.25 528.38,-2088.25 528.38,-2088.25 528.38,-2094.25 522.38,-2100.25 516.38,-2100.25"/>
<text xml:space="preserve" text-anchor="middle" x="426.62" y="-2077.2" font-family="Times New Roman,serif" font-size="14.00">249: _build_consolidation_script()</text>
</g>
<!-- node_b2ef3002 -->
<g id="node68" class="node">
<title>node_b2ef3002</title>
<path fill="#6db33f" stroke="black" d="M504.38,-2154.25C504.38,-2154.25 348.88,-2154.25 348.88,-2154.25 342.88,-2154.25 336.88,-2148.25 336.88,-2142.25 336.88,-2142.25 336.88,-2130.25 336.88,-2130.25 336.88,-2124.25 342.88,-2118.25 348.88,-2118.25 348.88,-2118.25 504.38,-2118.25 504.38,-2118.25 510.38,-2118.25 516.38,-2124.25 516.38,-2130.25 516.38,-2130.25 516.38,-2142.25 516.38,-2142.25 516.38,-2148.25 510.38,-2154.25 504.38,-2154.25"/>
<text xml:space="preserve" text-anchor="middle" x="426.62" y="-2131.2" font-family="Times New Roman,serif" font-size="14.00">362: _build_datatable_script()</text>
</g>
<!-- node_fac10a98 -->
<g id="node69" class="node">
<title>node_fac10a98</title>
<path fill="#6db33f" stroke="black" d="M498.38,-2208.25C498.38,-2208.25 354.88,-2208.25 354.88,-2208.25 348.88,-2208.25 342.88,-2202.25 342.88,-2196.25 342.88,-2196.25 342.88,-2184.25 342.88,-2184.25 342.88,-2178.25 348.88,-2172.25 354.88,-2172.25 354.88,-2172.25 498.38,-2172.25 498.38,-2172.25 504.38,-2172.25 510.38,-2178.25 510.38,-2184.25 510.38,-2184.25 510.38,-2196.25 510.38,-2196.25 510.38,-2202.25 504.38,-2208.25 498.38,-2208.25"/>
<text xml:space="preserve" text-anchor="middle" x="426.62" y="-2185.2" font-family="Times New Roman,serif" font-size="14.00">110: _build_import_block()</text>
</g>
<!-- node_8d16b3a2 -->
<g id="node70" class="node">
<title>node_8d16b3a2</title>
<path fill="#6db33f" stroke="black" d="M494.62,-2262.25C494.62,-2262.25 358.62,-2262.25 358.62,-2262.25 352.62,-2262.25 346.62,-2256.25 346.62,-2250.25 346.62,-2250.25 346.62,-2238.25 346.62,-2238.25 346.62,-2232.25 352.62,-2226.25 358.62,-2226.25 358.62,-2226.25 494.62,-2226.25 494.62,-2226.25 500.62,-2226.25 506.62,-2232.25 506.62,-2238.25 506.62,-2238.25 506.62,-2250.25 506.62,-2250.25 506.62,-2256.25 500.62,-2262.25 494.62,-2262.25"/>
<text xml:space="preserve" text-anchor="middle" x="426.62" y="-2239.2" font-family="Times New Roman,serif" font-size="14.00">970: _write_batch_script()</text>
</g>
<!-- node_c2ad0a6e -->
<g id="node71" class="node">
<title>node_c2ad0a6e</title>
<path fill="#966f33" stroke="black" d="M234,-2181.25C234,-2181.25 32,-2181.25 32,-2181.25 26,-2181.25 20,-2175.25 20,-2169.25 20,-2169.25 20,-2157.25 20,-2157.25 20,-2151.25 26,-2145.25 32,-2145.25 32,-2145.25 234,-2145.25 234,-2145.25 240,-2145.25 246,-2151.25 246,-2157.25 246,-2157.25 246,-2169.25 246,-2169.25 246,-2175.25 240,-2181.25 234,-2181.25"/>
<text xml:space="preserve" text-anchor="middle" x="133" y="-2158.2" font-family="Times New Roman,serif" font-size="14.00">1102: generate_unreal_import_script()</text>
</g>
<!-- node_c2ad0a6e&#45;&gt;node_1b78497e -->
<g id="edge82" class="edge">
<title>node_c2ad0a6e&#45;&gt;node_1b78497e</title>
<path fill="none" stroke="#d55e00" stroke-width="2" d="M246.31,-2148.25C290.5,-2148.25 330.75,-2148.25 330.75,-2148.25 330.75,-2148.25 330.75,-2113.66 330.75,-2113.66"/>
<polygon fill="#d55e00" stroke="#d55e00" stroke-width="2" points="334.25,-2113.66 330.75,-2103.66 327.25,-2113.66 334.25,-2113.66"/>
</g>
<!-- node_c2ad0a6e&#45;&gt;node_b2ef3002 -->
<g id="edge83" class="edge">
<title>node_c2ad0a6e&#45;&gt;node_b2ef3002</title>
<path fill="none" stroke="#d55e00" stroke-width="2" d="M246.1,-2151.25C246.1,-2151.25 323.79,-2151.25 323.79,-2151.25"/>
<polygon fill="#d55e00" stroke="#d55e00" stroke-width="2" points="323.79,-2154.75 333.79,-2151.25 323.78,-2147.75 323.79,-2154.75"/>
</g>
<!-- node_c2ad0a6e&#45;&gt;node_fac10a98 -->
<g id="edge84" class="edge">
<title>node_c2ad0a6e&#45;&gt;node_fac10a98</title>
<path fill="none" stroke="#d55e00" stroke-width="2" d="M246.1,-2176.75C246.1,-2176.75 329.73,-2176.75 329.73,-2176.75"/>
<polygon fill="#d55e00" stroke="#d55e00" stroke-width="2" points="329.73,-2180.25 339.73,-2176.75 329.73,-2173.25 329.73,-2180.25"/>
</g>
<!-- node_c2ad0a6e&#45;&gt;node_8d16b3a2 -->
<g id="edge86" class="edge">
<title>node_c2ad0a6e&#45;&gt;node_8d16b3a2</title>
<path fill="none" stroke="#d55e00" stroke-width="2" d="M132.75,-2181.63C132.75,-2205.53 132.75,-2244.25 132.75,-2244.25 132.75,-2244.25 333.3,-2244.25 333.3,-2244.25"/>
<polygon fill="#d55e00" stroke="#d55e00" stroke-width="2" points="333.3,-2247.75 343.3,-2244.25 333.3,-2240.75 333.3,-2247.75"/>
</g>
<!-- node_f7bc259d -->
<g id="node72" class="node">
<title>node_f7bc259d</title>
<path fill="#6db33f" stroke="black" d="M1155.12,-274.25C1155.12,-274.25 963.62,-274.25 963.62,-274.25 957.62,-274.25 951.62,-268.25 951.62,-262.25 951.62,-262.25 951.62,-250.25 951.62,-250.25 951.62,-244.25 957.62,-238.25 963.62,-238.25 963.62,-238.25 1155.12,-238.25 1155.12,-238.25 1161.12,-238.25 1167.12,-244.25 1167.12,-250.25 1167.12,-250.25 1167.12,-262.25 1167.12,-262.25 1167.12,-268.25 1161.12,-274.25 1155.12,-274.25"/>
<text xml:space="preserve" text-anchor="middle" x="1059.38" y="-251.2" font-family="Times New Roman,serif" font-size="14.00">268: _classify_by_hierarchy_depth()</text>
</g>
<!-- node_c8946d06&#45;&gt;node_f7bc259d -->
<g id="edge88" class="edge">
<title>node_c8946d06&#45;&gt;node_f7bc259d</title>
<path fill="none" stroke="#d55e00" stroke-width="2" d="M797.45,-256.25C797.45,-256.25 938.3,-256.25 938.3,-256.25"/>
<polygon fill="#d55e00" stroke="#d55e00" stroke-width="2" points="938.3,-259.75 948.3,-256.25 938.3,-252.75 938.3,-259.75"/>
</g>
<!-- node_a73f5983 -->
<g id="node74" class="node">
<title>node_a73f5983</title>
<path fill="#6db33f" stroke="black" d="M833.5,-166.25C833.5,-166.25 628.5,-166.25 628.5,-166.25 622.5,-166.25 616.5,-160.25 616.5,-154.25 616.5,-154.25 616.5,-142.25 616.5,-142.25 616.5,-136.25 622.5,-130.25 628.5,-130.25 628.5,-130.25 833.5,-130.25 833.5,-130.25 839.5,-130.25 845.5,-136.25 845.5,-142.25 845.5,-142.25 845.5,-154.25 845.5,-154.25 845.5,-160.25 839.5,-166.25 833.5,-166.25"/>
<text xml:space="preserve" text-anchor="middle" x="731" y="-143.2" font-family="Times New Roman,serif" font-size="14.00">289: _extract_joint_names_from_usd()</text>
</g>
<!-- node_11a6fb62 -->
<g id="node76" class="node">
<title>node_11a6fb62</title>
<path fill="#cccccc" stroke="black" d="M492,-220.25C492,-220.25 361.25,-220.25 361.25,-220.25 355.25,-220.25 349.25,-214.25 349.25,-208.25 349.25,-208.25 349.25,-196.25 349.25,-196.25 349.25,-190.25 355.25,-184.25 361.25,-184.25 361.25,-184.25 492,-184.25 492,-184.25 498,-184.25 504,-190.25 504,-196.25 504,-196.25 504,-208.25 504,-208.25 504,-214.25 498,-220.25 492,-220.25"/>
<text xml:space="preserve" text-anchor="middle" x="426.62" y="-197.2" font-family="Times New Roman,serif" font-size="14.00">98: generate_wind_json()</text>
</g>
<!-- node_11a6fb62&#45;&gt;node_c8946d06 -->
<g id="edge89" class="edge">
<title>node_11a6fb62&#45;&gt;node_c8946d06</title>
<path fill="none" stroke="#56b4e9" stroke-width="2" d="M426.75,-220.67C426.75,-234.21 426.75,-250.25 426.75,-250.25 426.75,-250.25 651.58,-250.25 651.58,-250.25"/>
<polygon fill="#56b4e9" stroke="#56b4e9" stroke-width="2" points="651.58,-253.75 661.58,-250.25 651.58,-246.75 651.58,-253.75"/>
</g>
<!-- node_11a6fb62&#45;&gt;node_a73f5983 -->
<g id="edge90" class="edge">
<title>node_11a6fb62&#45;&gt;node_a73f5983</title>
<path fill="none" stroke="#56b4e9" stroke-width="2" d="M426.75,-183.97C426.75,-168.3 426.75,-148.25 426.75,-148.25 426.75,-148.25 603.38,-148.25 603.38,-148.25"/>
<polygon fill="#56b4e9" stroke="#56b4e9" stroke-width="2" points="603.38,-151.75 613.38,-148.25 603.38,-144.75 603.38,-151.75"/>
</g>
<!-- node_11a6fb62&#45;&gt;node_f361e6ef -->
<g id="edge91" class="edge">
<title>node_11a6fb62&#45;&gt;node_f361e6ef</title>
<path fill="none" stroke="#56b4e9" stroke-width="2" d="M504.22,-202.25C504.22,-202.25 592.92,-202.25 592.92,-202.25"/>
<polygon fill="#56b4e9" stroke="#56b4e9" stroke-width="2" points="592.92,-205.75 602.92,-202.25 592.92,-198.75 592.92,-205.75"/>
</g>
<!-- node_ad3481b7 -->
<g id="node77" class="node">
<title>node_ad3481b7</title>
<path fill="#966f33" stroke="black" d="M235.88,-220.25C235.88,-220.25 30.12,-220.25 30.12,-220.25 24.12,-220.25 18.12,-214.25 18.12,-208.25 18.12,-208.25 18.12,-196.25 18.12,-196.25 18.12,-190.25 24.12,-184.25 30.12,-184.25 30.12,-184.25 235.88,-184.25 235.88,-184.25 241.88,-184.25 247.88,-190.25 247.88,-196.25 247.88,-196.25 247.88,-208.25 247.88,-208.25 247.88,-214.25 241.88,-220.25 235.88,-220.25"/>
<text xml:space="preserve" text-anchor="middle" x="133" y="-197.2" font-family="Times New Roman,serif" font-size="14.00">467: generate_wind_json_for_species()</text>
</g>
<!-- node_ad3481b7&#45;&gt;node_11a6fb62 -->
<g id="edge92" class="edge">
<title>node_ad3481b7&#45;&gt;node_11a6fb62</title>
<path fill="none" stroke="#cc79a7" stroke-width="2" d="M248.21,-202.25C248.21,-202.25 335.82,-202.25 335.82,-202.25"/>
<polygon fill="#cc79a7" stroke="#cc79a7" stroke-width="2" points="335.82,-205.75 345.82,-202.25 335.82,-198.75 335.82,-205.75"/>
</g>
</g>
</svg>
