<?xml version="1.0" encoding="UTF-8" standalone="no"?>
<!DOCTYPE svg PUBLIC "-//W3C//DTD SVG 1.1//EN"
 "http://www.w3.org/Graphics/SVG/1.1/DTD/svg11.dtd">
<!-- Generated by graphviz version 14.1.2 (0)
 -->
<!-- Title: G Pages: 1 -->
<svg width="1277pt" height="680pt"
 viewBox="0.00 0.00 1277.00 680.00" xmlns="http://www.w3.org/2000/svg" xmlns:xlink="http://www.w3.org/1999/xlink">
<g id="graph0" class="graph" transform="scale(1 1) rotate(0) translate(4 676)">
<title>G</title>
<polygon fill="white" stroke="none" points="-4,4 -4,-676 1272.75,-676 1272.75,4 -4,4"/>
<g id="clust2" class="cluster">
<title>cluster_5ff9357b</title>
<polygon fill="none" stroke="black" stroke-dasharray="1,5" points="403.75,-448 403.75,-579 1014.12,-579 1014.12,-448 403.75,-448"/>
<text xml:space="preserve" text-anchor="middle" x="708.94" y="-561.7" font-family="Times New Roman,serif" font-size="14.00">File: dataset_csv_planner</text>
</g>
<g id="clust3" class="cluster">
<title>cluster_2788845f</title>
<polygon fill="none" stroke="black" stroke-dasharray="1,5" points="852,-8 852,-139 1260.75,-139 1260.75,-8 852,-8"/>
<text xml:space="preserve" text-anchor="middle" x="1056.38" y="-121.7" font-family="Times New Roman,serif" font-size="14.00">File: dataset_job_planner</text>
</g>
<g id="clust4" class="cluster">
<title>cluster_809c3a4b</title>
<polygon fill="none" stroke="black" stroke-dasharray="1,5" points="84,-587 84,-664 573.38,-664 573.38,-587 84,-587"/>
<text xml:space="preserve" text-anchor="middle" x="328.69" y="-646.7" font-family="Times New Roman,serif" font-size="14.00">File: dataset_pipeline</text>
</g>
<g id="clust5" class="cluster">
<title>cluster_0fa950b8</title>
<polygon fill="none" stroke="black" stroke-dasharray="1,5" points="409.38,-147 409.38,-440 1025.75,-440 1025.75,-147 409.38,-147"/>
<text xml:space="preserve" text-anchor="middle" x="717.56" y="-422.7" font-family="Times New Roman,serif" font-size="14.00">File: step_runner</text>
</g>
<!-- Legend -->
<g id="node1" class="node">
<title>Legend</title>
<polygon fill="none" stroke="black" points="1,-557.75 1,-576.25 265,-576.25 265,-557.75 1,-557.75"/>
<text xml:space="preserve" text-anchor="start" x="80.88" y="-561.95" font-family="Times New Roman,serif" font-size="14.00">Code2flow Legend</text>
<polygon fill="none" stroke="black" points="1,-463.75 1,-557.75 265,-557.75 265,-463.75 1,-463.75"/>
<polygon fill="none" stroke="black" points="3,-533.25 3,-555.75 213,-555.75 213,-533.25 3,-533.25"/>
<text xml:space="preserve" text-anchor="start" x="62.25" y="-539.45" font-family="Times New Roman,serif" font-size="14.00">Regular function</text>
<polygon fill="#cccccc" stroke="none" points="213,-533.25 213,-555.75 263,-555.75 263,-533.25 213,-533.25"/>
<polygon fill="none" stroke="black" points="213,-533.25 213,-555.75 263,-555.75 263,-533.25 213,-533.25"/>
<polygon fill="none" stroke="black" points="3,-510.75 3,-533.25 213,-533.25 213,-510.75 3,-510.75"/>
<text xml:space="preserve" text-anchor="start" x="14.25" y="-516.95" font-family="Times New Roman,serif" font-size="14.00">Trunk function (nothing calls this)</text>
<polygon fill="#966f33" stroke="none" points="213,-510.75 213,-533.25 263,-533.25 263,-510.75 213,-510.75"/>
<polygon fill="none" stroke="black" points="213,-510.75 213,-533.25 263,-533.25 263,-510.75 213,-510.75"/>
<polygon fill="none" stroke="black" points="3,-488.25 3,-510.75 213,-510.75 213,-488.25 3,-488.25"/>
<text xml:space="preserve" text-anchor="start" x="6" y="-494.45" font-family="Times New Roman,serif" font-size="14.00">Leaf function (this calls nothing else)</text>
<polygon fill="#6db33f" stroke="none" points="213,-488.25 213,-510.75 263,-510.75 263,-488.25 213,-488.25"/>
<polygon fill="none" stroke="black" points="213,-488.25 213,-510.75 263,-510.75 263,-488.25 213,-488.25"/>
<polygon fill="none" stroke="black" points="3,-465.75 3,-488.25 213,-488.25 213,-465.75 3,-465.75"/>
<text xml:space="preserve" text-anchor="start" x="72.38" y="-471.95" font-family="Times New Roman,serif" font-size="14.00">Function call</text>
<polygon fill="none" stroke="black" points="213,-465.75 213,-488.25 263,-488.25 263,-465.75 213,-465.75"/>
<text xml:space="preserve" text-anchor="start" x="230.88" y="-471.95" font-family="Times New Roman,serif" font-size="14.00">→</text>
<polygon fill="none" stroke="black" points="2,-464.75 2,-556.75 264,-556.75 264,-464.75 2,-464.75"/>
<polygon fill="none" stroke="black" points="0,-462.75 0,-577.25 266,-577.25 266,-462.75 0,-462.75"/>
</g>
<!-- node_d05919a6 -->
<g id="node2" class="node">
<title>node_d05919a6</title>
<path fill="#6db33f" stroke="black" d="M789.88,-492C789.88,-492 654.62,-492 654.62,-492 648.62,-492 642.62,-486 642.62,-480 642.62,-480 642.62,-468 642.62,-468 642.62,-462 648.62,-456 654.62,-456 654.62,-456 789.88,-456 789.88,-456 795.88,-456 801.88,-462 801.88,-468 801.88,-468 801.88,-480 801.88,-480 801.88,-486 795.88,-492 789.88,-492"/>
<text xml:space="preserve" text-anchor="middle" x="722.25" y="-468.95" font-family="Times New Roman,serif" font-size="14.00">46: _get_dataset_species()</text>
</g>
<!-- node_65d98883 -->
<g id="node3" class="node">
<title>node_65d98883</title>
<path fill="#6db33f" stroke="black" d="M994.12,-546C994.12,-546 864.12,-546 864.12,-546 858.12,-546 852.12,-540 852.12,-534 852.12,-534 852.12,-522 852.12,-522 852.12,-516 858.12,-510 864.12,-510 864.12,-510 994.12,-510 994.12,-510 1000.12,-510 1006.12,-516 1006.12,-522 1006.12,-522 1006.12,-534 1006.12,-534 1006.12,-540 1000.12,-546 994.12,-546"/>
<text xml:space="preserve" text-anchor="middle" x="929.12" y="-522.95" font-family="Times New Roman,serif" font-size="14.00">63: _triangle_neighbors()</text>
</g>
<!-- node_31ee8ca7 -->
<g id="node4" class="node">
<title>node_31ee8ca7</title>
<path fill="#cccccc" stroke="black" d="M582.25,-492C582.25,-492 433.5,-492 433.5,-492 427.5,-492 421.5,-486 421.5,-480 421.5,-480 421.5,-468 421.5,-468 421.5,-462 427.5,-456 433.5,-456 433.5,-456 582.25,-456 582.25,-456 588.25,-456 594.25,-462 594.25,-468 594.25,-468 594.25,-480 594.25,-480 594.25,-486 588.25,-492 582.25,-492"/>
<text xml:space="preserve" text-anchor="middle" x="507.88" y="-468.95" font-family="Times New Roman,serif" font-size="14.00">132: generate_dataset_csvs()</text>
</g>
<!-- node_31ee8ca7&#45;&gt;node_d05919a6 -->
<g id="edge1" class="edge">
<title>node_31ee8ca7&#45;&gt;node_d05919a6</title>
<path fill="none" stroke="#cc79a7" stroke-width="2" d="M594.45,-468C594.45,-468 629.25,-468 629.25,-468"/>
<polygon fill="#cc79a7" stroke="#cc79a7" stroke-width="2" points="629.25,-471.5 639.25,-468 629.25,-464.5 629.25,-471.5"/>
</g>
<!-- node_79ec4b7d -->
<g id="node5" class="node">
<title>node_79ec4b7d</title>
<path fill="#cccccc" stroke="black" d="M792.5,-546C792.5,-546 652,-546 652,-546 646,-546 640,-540 640,-534 640,-534 640,-522 640,-522 640,-516 646,-510 652,-510 652,-510 792.5,-510 792.5,-510 798.5,-510 804.5,-516 804.5,-522 804.5,-522 804.5,-534 804.5,-534 804.5,-540 798.5,-546 792.5,-546"/>
<text xml:space="preserve" text-anchor="middle" x="722.25" y="-522.95" font-family="Times New Roman,serif" font-size="14.00">81: generate_merged_csv()</text>
</g>
<!-- node_31ee8ca7&#45;&gt;node_79ec4b7d -->
<g id="edge2" class="edge">
<title>node_31ee8ca7&#45;&gt;node_79ec4b7d</title>
<path fill="none" stroke="#cc79a7" stroke-width="2" d="M594.47,-480C610.21,-480 621.75,-480 621.75,-480 621.75,-480 621.75,-528 621.75,-528 621.75,-528 626.69,-528 626.69,-528"/>
<polygon fill="#cc79a7" stroke="#cc79a7" stroke-width="2" points="626.69,-531.5 636.69,-528 626.69,-524.5 626.69,-531.5"/>
</g>
<!-- node_79ec4b7d&#45;&gt;node_65d98883 -->
<g id="edge3" class="edge">
<title>node_79ec4b7d&#45;&gt;node_65d98883</title>
<path fill="none" stroke="#0072b2" stroke-width="2" d="M804.9,-528C804.9,-528 838.61,-528 838.61,-528"/>
<polygon fill="#0072b2" stroke="#0072b2" stroke-width="2" points="838.61,-531.5 848.61,-528 838.61,-524.5 838.61,-531.5"/>
</g>
<!-- node_7a088e89 -->
<g id="node6" class="node">
<title>node_7a088e89</title>
<path fill="#6db33f" stroke="black" d="M592,-546C592,-546 423.75,-546 423.75,-546 417.75,-546 411.75,-540 411.75,-534 411.75,-534 411.75,-522 411.75,-522 411.75,-516 417.75,-510 423.75,-510 423.75,-510 592,-510 592,-510 598,-510 604,-516 604,-522 604,-522 604,-534 604,-534 604,-540 598,-546 592,-546"/>
<text xml:space="preserve" text-anchor="middle" x="507.88" y="-522.95" font-family="Times New Roman,serif" font-size="14.00">185: synchronize_dataset_csvs()</text>
</g>
<!-- node_8438b66b -->
<g id="node7" class="node">
<title>node_8438b66b</title>
<path fill="#6db33f" stroke="black" d="M1240.75,-106C1240.75,-106 1065.75,-106 1065.75,-106 1059.75,-106 1053.75,-100 1053.75,-94 1053.75,-94 1053.75,-82 1053.75,-82 1053.75,-76 1059.75,-70 1065.75,-70 1065.75,-70 1240.75,-70 1240.75,-70 1246.75,-70 1252.75,-76 1252.75,-82 1252.75,-82 1252.75,-94 1252.75,-94 1252.75,-100 1246.75,-106 1240.75,-106"/>
<text xml:space="preserve" text-anchor="middle" x="1153.25" y="-82.95" font-family="Times New Roman,serif" font-size="14.00">34: display_names_from_stems()</text>
</g>
<!-- node_fef7ad16 -->
<g id="node8" class="node">
<title>node_fef7ad16</title>
<path fill="#6db33f" stroke="black" d="M986.25,-106C986.25,-106 872,-106 872,-106 866,-106 860,-100 860,-94 860,-94 860,-82 860,-82 860,-76 866,-70 872,-70 872,-70 986.25,-70 986.25,-70 992.25,-70 998.25,-76 998.25,-82 998.25,-82 998.25,-94 998.25,-94 998.25,-100 992.25,-106 986.25,-106"/>
<text xml:space="preserve" text-anchor="middle" x="929.12" y="-82.95" font-family="Times New Roman,serif" font-size="14.00">17: find_species_csv()</text>
</g>
<!-- node_da738f66 -->
<g id="node9" class="node">
<title>node_da738f66</title>
<path fill="#6db33f" stroke="black" d="M1205.5,-52C1205.5,-52 1101,-52 1101,-52 1095,-52 1089,-46 1089,-40 1089,-40 1089,-28 1089,-28 1089,-22 1095,-16 1101,-16 1101,-16 1205.5,-16 1205.5,-16 1211.5,-16 1217.5,-22 1217.5,-28 1217.5,-28 1217.5,-40 1217.5,-40 1217.5,-46 1211.5,-52 1205.5,-52"/>
<text xml:space="preserve" text-anchor="middle" x="1153.25" y="-28.95" font-family="Times New Roman,serif" font-size="14.00">26: list_all_species()</text>
</g>
<!-- node_4357c978 -->
<g id="node10" class="node">
<title>node_4357c978</title>
<path fill="#cccccc" stroke="black" d="M982.5,-52C982.5,-52 875.75,-52 875.75,-52 869.75,-52 863.75,-46 863.75,-40 863.75,-40 863.75,-28 863.75,-28 863.75,-22 869.75,-16 875.75,-16 875.75,-16 982.5,-16 982.5,-16 988.5,-16 994.5,-22 994.5,-28 994.5,-28 994.5,-40 994.5,-40 994.5,-46 988.5,-52 982.5,-52"/>
<text xml:space="preserve" text-anchor="middle" x="929.12" y="-28.95" font-family="Times New Roman,serif" font-size="14.00">39: resolve_species()</text>
</g>
<!-- node_4357c978&#45;&gt;node_8438b66b -->
<g id="edge4" class="edge">
<title>node_4357c978&#45;&gt;node_8438b66b</title>
<path fill="none" stroke="#000000" stroke-width="2" d="M994.59,-40C1032.09,-40 1071.75,-40 1071.75,-40 1071.75,-40 1071.75,-56.55 1071.75,-56.55"/>
<polygon fill="#000000" stroke="#000000" stroke-width="2" points="1068.25,-56.55 1071.75,-66.55 1075.25,-56.55 1068.25,-56.55"/>
</g>
<!-- node_4357c978&#45;&gt;node_da738f66 -->
<g id="edge5" class="edge">
<title>node_4357c978&#45;&gt;node_da738f66</title>
<path fill="none" stroke="#000000" stroke-width="2" d="M994.86,-28C994.86,-28 1075.65,-28 1075.65,-28"/>
<polygon fill="#000000" stroke="#000000" stroke-width="2" points="1075.65,-31.5 1085.65,-28 1075.65,-24.5 1075.65,-31.5"/>
</g>
<!-- node_d2c22c66 -->
<g id="node11" class="node">
<title>node_d2c22c66</title>
<path fill="#966f33" stroke="black" d="M162,-631C162,-631 104,-631 104,-631 98,-631 92,-625 92,-619 92,-619 92,-607 92,-607 92,-601 98,-595 104,-595 104,-595 162,-595 162,-595 168,-595 174,-601 174,-607 174,-607 174,-619 174,-619 174,-625 168,-631 162,-631"/>
<text xml:space="preserve" text-anchor="middle" x="133" y="-607.95" font-family="Times New Roman,serif" font-size="14.00">0: (global)()</text>
</g>
<!-- node_9a0237d7 -->
<g id="node13" class="node">
<title>node_9a0237d7</title>
<path fill="#cccccc" stroke="black" d="M363.75,-631C363.75,-631 314,-631 314,-631 308,-631 302,-625 302,-619 302,-619 302,-607 302,-607 302,-601 308,-595 314,-595 314,-595 363.75,-595 363.75,-595 369.75,-595 375.75,-601 375.75,-607 375.75,-607 375.75,-619 375.75,-619 375.75,-625 369.75,-631 363.75,-631"/>
<text xml:space="preserve" text-anchor="middle" x="338.88" y="-607.95" font-family="Times New Roman,serif" font-size="14.00">79: main()</text>
</g>
<!-- node_d2c22c66&#45;&gt;node_9a0237d7 -->
<g id="edge6" class="edge">
<title>node_d2c22c66&#45;&gt;node_9a0237d7</title>
<path fill="none" stroke="#d55e00" stroke-width="2" d="M174.17,-613C174.17,-613 288.56,-613 288.56,-613"/>
<polygon fill="#d55e00" stroke="#d55e00" stroke-width="2" points="288.56,-616.5 298.56,-613 288.56,-609.5 288.56,-616.5"/>
</g>
<!-- node_df3c399f -->
<g id="node12" class="node">
<title>node_df3c399f</title>
<path fill="#6db33f" stroke="black" d="M553.38,-631C553.38,-631 462.38,-631 462.38,-631 456.38,-631 450.38,-625 450.38,-619 450.38,-619 450.38,-607 450.38,-607 450.38,-601 456.38,-595 462.38,-595 462.38,-595 553.38,-595 553.38,-595 559.38,-595 565.38,-601 565.38,-607 565.38,-607 565.38,-619 565.38,-619 565.38,-625 559.38,-631 553.38,-631"/>
<text xml:space="preserve" text-anchor="middle" x="507.88" y="-607.95" font-family="Times New Roman,serif" font-size="14.00">57: _parse_steps()</text>
</g>
<!-- node_9a0237d7&#45;&gt;node_31ee8ca7 -->
<g id="edge7" class="edge">
<title>node_9a0237d7&#45;&gt;node_31ee8ca7</title>
<path fill="none" stroke="#cc79a7" stroke-width="2" d="M367.75,-594.71C367.75,-557.69 367.75,-477.38 367.75,-477.38 367.75,-477.38 408.1,-477.38 408.1,-477.38"/>
<polygon fill="#cc79a7" stroke="#cc79a7" stroke-width="2" points="408.1,-480.88 418.1,-477.38 408.1,-473.88 408.1,-480.88"/>
</g>
<!-- node_9a0237d7&#45;&gt;node_7a088e89 -->
<g id="edge8" class="edge">
<title>node_9a0237d7&#45;&gt;node_7a088e89</title>
<path fill="none" stroke="#cc79a7" stroke-width="2" d="M376.24,-607C401.68,-607 430.75,-607 430.75,-607 430.75,-607 430.75,-559.35 430.75,-559.35"/>
<polygon fill="#cc79a7" stroke="#cc79a7" stroke-width="2" points="434.25,-559.35 430.75,-549.35 427.25,-559.35 434.25,-559.35"/>
</g>
<!-- node_9a0237d7&#45;&gt;node_da738f66 -->
<g id="edge9" class="edge">
<title>node_9a0237d7&#45;&gt;node_da738f66</title>
<path fill="none" stroke="#cc79a7" stroke-width="2" d="M318.75,-594.63C318.75,-498.85 318.75,-61 318.75,-61 318.75,-61 1152.75,-61 1152.75,-61 1152.75,-61 1152.75,-60.15 1152.75,-60.15"/>
<polygon fill="#cc79a7" stroke="#cc79a7" stroke-width="2" points="1156.25,-65.48 1152.75,-55.48 1149.25,-65.48 1156.25,-65.48"/>
</g>
<!-- node_9a0237d7&#45;&gt;node_4357c978 -->
<g id="edge10" class="edge">
<title>node_9a0237d7&#45;&gt;node_4357c978</title>
<path fill="none" stroke="#cc79a7" stroke-width="2" d="M309.75,-594.72C309.75,-496.3 309.75,-34 309.75,-34 309.75,-34 850.4,-34 850.4,-34"/>
<polygon fill="#cc79a7" stroke="#cc79a7" stroke-width="2" points="850.4,-37.5 860.4,-34 850.4,-30.5 850.4,-37.5"/>
</g>
<!-- node_9a0237d7&#45;&gt;node_df3c399f -->
<g id="edge11" class="edge">
<title>node_9a0237d7&#45;&gt;node_df3c399f</title>
<path fill="none" stroke="#cc79a7" stroke-width="2" d="M375.96,-619C375.96,-619 436.92,-619 436.92,-619"/>
<polygon fill="#cc79a7" stroke="#cc79a7" stroke-width="2" points="436.92,-622.5 446.92,-619 436.92,-615.5 436.92,-622.5"/>
</g>
<!-- node_e524c94f -->
<g id="node16" class="node">
<title>node_e524c94f</title>
<path fill="#6db33f" stroke="black" d="M572.5,-245C572.5,-245 443.25,-245 443.25,-245 437.25,-245 431.25,-239 431.25,-233 431.25,-233 431.25,-221 431.25,-221 431.25,-215 437.25,-209 443.25,-209 443.25,-209 572.5,-209 572.5,-209 578.5,-209 584.5,-215 584.5,-221 584.5,-221 584.5,-233 584.5,-233 584.5,-239 578.5,-245 572.5,-245"/>
<text xml:space="preserve" text-anchor="middle" x="507.88" y="-221.95" font-family="Times New Roman,serif" font-size="14.00">31: check_environment()</text>
</g>
<!-- node_9a0237d7&#45;&gt;node_e524c94f -->
<g id="edge12" class="edge">
<title>node_9a0237d7&#45;&gt;node_e524c94f</title>
<path fill="none" stroke="#cc79a7" stroke-width="2" d="M326.75,-594.64C326.75,-517.93 326.75,-227 326.75,-227 326.75,-227 417.77,-227 417.77,-227"/>
<polygon fill="#cc79a7" stroke="#cc79a7" stroke-width="2" points="417.77,-230.5 427.77,-227 417.77,-223.5 417.77,-230.5"/>
</g>
<!-- node_e9c266da -->
<g id="node17" class="node">
<title>node_e9c266da</title>
<path fill="#6db33f" stroke="black" d="M586.38,-299C586.38,-299 429.38,-299 429.38,-299 423.38,-299 417.38,-293 417.38,-287 417.38,-287 417.38,-275 417.38,-275 417.38,-269 423.38,-263 429.38,-263 429.38,-263 586.38,-263 586.38,-263 592.38,-263 598.38,-269 598.38,-275 598.38,-275 598.38,-287 598.38,-287 598.38,-293 592.38,-299 586.38,-299"/>
<text xml:space="preserve" text-anchor="middle" x="507.88" y="-275.95" font-family="Times New Roman,serif" font-size="14.00">161: generate_unreal_scripts()</text>
</g>
<!-- node_9a0237d7&#45;&gt;node_e9c266da -->
<g id="edge13" class="edge">
<title>node_9a0237d7&#45;&gt;node_e9c266da</title>
<path fill="none" stroke="#cc79a7" stroke-width="2" d="M334.75,-594.68C334.75,-525.08 334.75,-281 334.75,-281 334.75,-281 403.98,-281 403.98,-281"/>
<polygon fill="#cc79a7" stroke="#cc79a7" stroke-width="2" points="403.98,-284.5 413.98,-281 403.98,-277.5 403.98,-284.5"/>
</g>
<!-- node_d59b4a43 -->
<g id="node18" class="node">
<title>node_d59b4a43</title>
<path fill="#6db33f" stroke="black" d="M572.5,-353C572.5,-353 443.25,-353 443.25,-353 437.25,-353 431.25,-347 431.25,-341 431.25,-341 431.25,-329 431.25,-329 431.25,-323 437.25,-317 443.25,-317 443.25,-317 572.5,-317 572.5,-317 578.5,-317 584.5,-323 584.5,-329 584.5,-329 584.5,-341 584.5,-341 584.5,-347 578.5,-353 572.5,-353"/>
<text xml:space="preserve" text-anchor="middle" x="507.88" y="-329.95" font-family="Times New Roman,serif" font-size="14.00">131: run_parallel_step4()</text>
</g>
<!-- node_9a0237d7&#45;&gt;node_d59b4a43 -->
<g id="edge14" class="edge">
<title>node_9a0237d7&#45;&gt;node_d59b4a43</title>
<path fill="none" stroke="#cc79a7" stroke-width="2" d="M342.75,-594.76C342.75,-532.91 342.75,-335 342.75,-335 342.75,-335 418.09,-335 418.09,-335"/>
<polygon fill="#cc79a7" stroke="#cc79a7" stroke-width="2" points="418.09,-338.5 428.09,-335 418.09,-331.5 418.09,-338.5"/>
</g>
<!-- node_f59b3d69 -->
<g id="node19" class="node">
<title>node_f59b3d69</title>
<path fill="#cccccc" stroke="black" d="M782.75,-191C782.75,-191 661.75,-191 661.75,-191 655.75,-191 649.75,-185 649.75,-179 649.75,-179 649.75,-167 649.75,-167 649.75,-161 655.75,-155 661.75,-155 661.75,-155 782.75,-155 782.75,-155 788.75,-155 794.75,-161 794.75,-167 794.75,-167 794.75,-179 794.75,-179 794.75,-185 788.75,-191 782.75,-191"/>
<text xml:space="preserve" text-anchor="middle" x="722.25" y="-167.95" font-family="Times New Roman,serif" font-size="14.00">89: run_species_step4()</text>
</g>
<!-- node_9a0237d7&#45;&gt;node_f59b3d69 -->
<g id="edge15" class="edge">
<title>node_9a0237d7&#45;&gt;node_f59b3d69</title>
<path fill="none" stroke="#cc79a7" stroke-width="2" d="M350.75,-594.54C350.75,-536.58 350.75,-362 350.75,-362 350.75,-362 721.75,-362 721.75,-362 721.75,-362 721.75,-204.49 721.75,-204.49"/>
<polygon fill="#cc79a7" stroke="#cc79a7" stroke-width="2" points="725.25,-204.49 721.75,-194.49 718.25,-204.49 725.25,-204.49"/>
</g>
<!-- node_fd4f108c -->
<g id="node20" class="node">
<title>node_fd4f108c</title>
<path fill="#6db33f" stroke="black" d="M552.25,-407C552.25,-407 463.5,-407 463.5,-407 457.5,-407 451.5,-401 451.5,-395 451.5,-395 451.5,-383 451.5,-383 451.5,-377 457.5,-371 463.5,-371 463.5,-371 552.25,-371 552.25,-371 558.25,-371 564.25,-377 564.25,-383 564.25,-383 564.25,-395 564.25,-395 564.25,-401 558.25,-407 552.25,-407"/>
<text xml:space="preserve" text-anchor="middle" x="507.88" y="-383.95" font-family="Times New Roman,serif" font-size="14.00">47: run_step123()</text>
</g>
<!-- node_9a0237d7&#45;&gt;node_fd4f108c -->
<g id="edge16" class="edge">
<title>node_9a0237d7&#45;&gt;node_fd4f108c</title>
<path fill="none" stroke="#cc79a7" stroke-width="2" d="M359.75,-594.67C359.75,-541.17 359.75,-389 359.75,-389 359.75,-389 438,-389 438,-389"/>
<polygon fill="#cc79a7" stroke="#cc79a7" stroke-width="2" points="438,-392.5 448,-389 438,-385.5 438,-392.5"/>
</g>
<!-- node_4b9e9237 -->
<g id="node14" class="node">
<title>node_4b9e9237</title>
<path fill="#6db33f" stroke="black" d="M1005.75,-191C1005.75,-191 852.5,-191 852.5,-191 846.5,-191 840.5,-185 840.5,-179 840.5,-179 840.5,-167 840.5,-167 840.5,-161 846.5,-155 852.5,-155 852.5,-155 1005.75,-155 1005.75,-155 1011.75,-155 1017.75,-161 1017.75,-167 1017.75,-167 1017.75,-179 1017.75,-179 1017.75,-185 1011.75,-191 1005.75,-191"/>
<text xml:space="preserve" text-anchor="middle" x="929.12" y="-167.95" font-family="Times New Roman,serif" font-size="14.00">76: _build_step4_command()</text>
</g>
<!-- node_bfa600b0 -->
<g id="node15" class="node">
<title>node_bfa600b0</title>
<path fill="#966f33" stroke="black" d="M580,-191C580,-191 435.75,-191 435.75,-191 429.75,-191 423.75,-185 423.75,-179 423.75,-179 423.75,-167 423.75,-167 423.75,-161 429.75,-155 435.75,-155 435.75,-155 580,-155 580,-155 586,-155 592,-161 592,-167 592,-167 592,-179 592,-179 592,-185 586,-191 580,-191"/>
<text xml:space="preserve" text-anchor="middle" x="507.88" y="-167.95" font-family="Times New Roman,serif" font-size="14.00">121: _run_species_worker()</text>
</g>
<!-- node_bfa600b0&#45;&gt;node_f59b3d69 -->
<g id="edge17" class="edge">
<title>node_bfa600b0&#45;&gt;node_f59b3d69</title>
<path fill="none" stroke="#000000" stroke-width="2" d="M592.29,-173C592.29,-173 636.33,-173 636.33,-173"/>
<polygon fill="#000000" stroke="#000000" stroke-width="2" points="636.33,-176.5 646.33,-173 636.33,-169.5 636.33,-176.5"/>
</g>
<!-- node_f59b3d69&#45;&gt;node_fef7ad16 -->
<g id="edge18" class="edge">
<title>node_f59b3d69&#45;&gt;node_fef7ad16</title>
<path fill="none" stroke="#e69f00" stroke-width="2" d="M721.75,-154.56C721.75,-129.56 721.75,-88 721.75,-88 721.75,-88 846.76,-88 846.76,-88"/>
<polygon fill="#e69f00" stroke="#e69f00" stroke-width="2" points="846.76,-91.5 856.76,-88 846.76,-84.5 846.76,-91.5"/>
</g>
<!-- node_f59b3d69&#45;&gt;node_4b9e9237 -->
<g id="edge19" class="edge">
<title>node_f59b3d69&#45;&gt;node_4b9e9237</title>
<path fill="none" stroke="#e69f00" stroke-width="2" d="M795.19,-173C795.19,-173 827.13,-173 827.13,-173"/>
<polygon fill="#e69f00" stroke="#e69f00" stroke-width="2" points="827.13,-176.5 837.13,-173 827.13,-169.5 827.13,-176.5"/>
</g>
</g>
</svg>
